<?xml version="1.0" encoding="UTF-8"?><svg id="uuid-d3058125-de5a-4501-ab65-ed60f1de30b7" xmlns="http://www.w3.org/2000/svg" viewBox="0 0 1920 1080"><path d="M804.42,244.13c-.32-3.66-1.54-7.46-2.09-11.01-.92-5.56.05-11.48-3.53-16.18-1.01-1.46-3.35-3.45-5.02-2.52l-.08.05c-2.35,2.05-1.2,7.72-1.04,10.85.74,8.55,1.87,17.29,3.3,25.32.66,3.41.32,6.84.11,10.35-.25,3.33-.11,6.73-.32,9.74-.1,1.66-.15,3.27-.07,4.97.39,5.97-.16,12.61-.15,18.68.5,8.54,6.5,6.49,7.89-.24.66-3.41.44-6.85.15-10.23-.87-4.1-1.22-7.89-.03-11.87,1.66-6.12,1.62-12.65,1.1-18.89-.26-2.96.1-5.8-.23-9.01Z" fill="#8b0000"/><path d="M1475.97,87.13l-.08-.17c-10.3-19.27-35.35-14.9-53.75-16.57-30.42-2.05-60.18-1.64-90.62-1.7-12.54-.42-24.11-.78-36.01-.86-8.29-.08-15.28,1.42-23.01.98-20.52-3.14-41.66-2.03-62.35-3.72-20.58-1.27-40.86-1.39-61.75-1.28-2.99-.04-4.31-.25-5.54-.53-6.29-1.5-14.52-.15-20.93-.26-11.54-.96-22.91-.2-34.61-.47-18.54-.73-36.33-1.7-54.52-.22-24.66-1.21-49.43-1.44-74.3-1.98-27.46.37-54.57,1.22-82.04.81-21.62,1.19-43.1-.44-64.75.85-3.55.04-4.21-.04-6.41-.33-.42-.08-.49-.16-.54-.23-.07-.12-.79-.23-1.76-.33-20.94-.72-45.11,3.25-48.79,27.96-.65,5.76-2.39,10.34-2.38,15.75-.33,6.19.72,11.96.79,18.09.76,14.57-.87,29.41.19,44.27.3,5.89.77,12.39,1.17,15.82.43,2.25-.24,4.02-3.12,3.73-2.72-.22-5.91-1.66-6.53-4.39-.61-1.92-.12-4.1-.18-6.05.04-2.36.13-4.76.9-7.02,1.3-3.62,2.95-7.27,3.14-10.98.88-4.89,1.16-9.99,1.09-15.02.11-2.65.76-4.64.12-7.15-.61-2.76-4.3-5.84-6.11-1.95-2.31,5.92-1.88,13.85-2.14,19.74-.27,4.73-1.88,9.23-2.55,14.15-1.41,7.69-.47,16.4-11.2,12.89-8.2-2.46-15.95-6.61-24.05-9.46-16.69-5.61-33.5-10.85-50.56-14.92-11.42-4.17-24.12-7.14-36.18-9.29-12.38-2.44-24.36-5.44-36.56-8.61-9.44-2.3-18.47-3.51-28.31-4.02-2.09-.13-4.19-.15-5.78.05-1.84.23-2.83.86-2.59,1.64.62,1.62,3.66,2.57,6.92,3.66,8.07,2.26,16.79,2.87,24.86,5.38,4.5,1.28,8.82,2.61,13.38,3.73,20.28,4.43,40.55,9.13,60.52,14.27,7.29,1.06,13.48,2.77,20.19,5.64,9.76,3.52,20.54,5.35,30.25,9.11,14.75,5.18,30.09,9.82,45.29,14,10.21,3.69,20.86,8.13,31.14,11.08,6.91,2.72,27.79,8.35,10.85-2.74-8.84-5.11-18.44-6.21-26.73-11.41-4.49-3.64-3.03-10.76-2.62-16.08.56-6.43.85-11.64,1.15-17.63.65-13.58.62-25.17.59-38.41.09-12.88-.65-27.77,7.74-38.37,11.72-12.91,32.81-7.92,48.74-9.01,18.75.06,37.29-.14,55.95-.51,41.83.46,83.59-.78,125.37.52,21.22.42,42.17-1.23,63.38-.84,39.91,3.74,83.24,1.03,121.99,2.85,9.54.8,20.08.84,29.3.89,14.44.92,29.45.78,43.98.89,26.57,1.14,53.29,1.67,80.06,1.37,31.97-.29,65.74,3.81,98.15,3.18,33.89-1,43.98,12.11,36.49,45.51-1.49,9.84-.14,19.39-1.26,29.44-1.38,27.44-.63,52.9-1.13,80.19-1.05,36.11-2.95,66.26-3.2,100.71-.77,60.32-1.21,120.06-1.75,180.34.13,16.53-.98,32.46-.78,49.06.29,16.96.56,33.58.94,50.29.63,13.86-1.29,27.62-1.76,41.73-.59,40.58.87,83.55-.15,123.77-.79,10.51-.37,21.29-.29,31.74-.45,14.86-.53,30.64-.11,45.54-.07,38.25-.43,76.52,1.16,115.03.76,38.62-1.66,77.64.36,116.25.3,32.31.38,64.16,2.14,96.26.05.79.1,1.56.15,2.31.58,6.02.71,10.22,1.69,9.23,3.02-17.81,3.48-40.91,3.75-59.57-1.84-49.11.71-99.68-1.77-148.5-.88-22.49-.52-45.62-.69-68.44.35-12.29-2.79-23.74-1.48-35.56,1.53-9.28,1.03-18.74,1.28-28.46.1-15.68.34-30.45.87-46.13.61-17.76.67-33.72.59-52.12.61-9.05-1.27-21,.17-29.67,1.51-6,.35-15.89.07-22.45,0-11.51,1.15-24.21.06-35.58.17-18.02,1.07-36.31,1.15-54.31-.29-5.04-.19-10.73-.39-15.35-.24-3.79-1.04-8.12-.31-11.86,1.09-27.51,1.27-56.14,2.15-83.8,0-14.77.16-28.57-.45-43.15-.13-9.67.73-19.03.06-27.98-.05-12.41,1.06-25.73.59-38.03-.77-9.54.2-17.97.12-27.26-.08-8.1.82-16.92.65-25.19.37-9.76-.96-20.02.16-28.88.18-.82.26-2.16.65-2.58.29-.62.09-1,.21-2.06.19-10.3.13-21.07.17-31.37-.1-8.44,1.04-16.57.99-25.02.19-10.25-.94-19.37.42-29.15.77-8.84-.48-18.3-.64-27.24-.65-17.5.87-34.9.19-52.54-.05-6.21-.7-11.06-.45-16.84,1.46-12.13,8.09-27.04,1.5-39.08Z" fill="#8b0000"/><path d="M1503.46,140.98c1.01-12.56-1.27-25.47-1.09-38.34-.79-20.21.68-40.07-1.12-60.29-.06-7.33-1.54-12.48-.91-18.18.09-.73-.02-1.07-.86-1.47-7.59-2.11-20.61-4.35-29.48-5.33-9.4-1.33-18.53-1.42-27.79-1.71-17.27-.63-34.21-1.91-51.54-2.99-22.26-1.64-43.38-.39-65.59-1.46-8.52-.42-14.91-.6-22.58-.77-7.65-.48-16.51,1.25-23.46.73-8.68-1.52-17.89-2.11-26.86-2.41-25.35-.93-49.07-3.33-74.62-2.9-6.37.41-11.81-.37-17.52-1.12-8.89.08-17.32.51-26.59-.21-16.58.62-33.67-.72-50.04-.78-22.98,1.26-45.52-.3-68.48-.54-21.13-.49-42.64.81-63.57,1.31-14.02-.33-29.17.67-43.29.69-7.32.24-14.91-.11-22.28.22-6.16,0-12.97,1.09-18.54.61-.58-.11-1.2.02-1.61-.36.1-.17-1.56-.29-2.5-.31-1.93-.08-3.82.09-5.88.12-15.66,1-31.91.13-47.3,1.45-6.5.16-11.19-.55-17.75.36-14.88,2.41-29.92,1.84-45.11,3.17-7.54.68-36.28,4.27-9.44,5.35,22.23.95,43.55-.86,65.36-1.79,20.79-.88,40.45.18,60.67-.19,46.83-.87,93.39-1.82,140-2.19,14.3-.24,28.04.47,42.18.38,14.47-.51,27.61-.96,41.82-1.23,28.41,2.54,56.7,2.06,85.36,2.16,21.64.35,43,1.57,64.58,2.32,35.75.6,72.5,2.54,107.68,2.4,20.28.54,41.07,3.25,61.23,3.69,22.48.17,44.51,1.99,67.08,2.57,31.8.11,22.74-.68,22.68,34.31-1.23,33.55.21,64.08-.06,97.51-3.64,115.28-.96,225.34-3.54,339.93-.25,25.41.76,50.62.67,75.87-3.92,55.71-1.63,116.6-3.71,170.49-.94,10.49-.78,21.72-.82,32.04-.97,20.59-1.11,40.89-1.18,61.86-1.52,37.92-1.98,76.78-1.89,115-.18,35.04-3.86,73.98-3.8,109.16.23,12.27-.57,26.76-.9,38.8-.63,21.14-1.25,41.88-1.54,63-.06,4.67-.1,9.37-.08,14.01.01,1.98.02,3.88.06,5.81.11,6.65.41,11.02.98,11.07,2.79-7.72,3.16-21.73,4.41-31.25,3.79-32.95,2.61-65.86,4.36-98.8,2.5-43.4,2.33-85.59,2.63-128.73.65-15.39.8-30.27,1.14-45.76.14-10.99-1.74-20.64-1.03-31.07,3.09-19.4,2.29-40.02,3.03-59.72,2-34.76,2.93-69.18,2.62-104.4-.03-1.92.13-6.95.62-7.84.35-.7.46-.73.64-2.58.18-5.53.19-13.51-.17-18.9-.54-13,1.52-27.17.31-39.97.21-25.84,2.36-53.12,1.05-79.04.08-41.47,2.63-83.73,2.12-125.19.15-6.75-.18-13.4-.47-20.15-.27-11.81.66-24.94-.22-36.57.68-16.12.91-33.52.04-49.7.5-14.51.6-28.93.82-43.47.27-12.41-1.49-23.7.3-35.25.09-.3.26,1.32.34-.59,0-.2.02-.43.02-.69.2-14.38-.42-29.82-.11-44.22,1.61-15.54-.74-32.44.49-47.89v-.04Z" fill="#8b0000"/><path d="M1454.96,323.2l-.08-.02c-2.4-.41-5,1.76-7.09,3.4-5.07,4.27-9.9,9.53-14.39,13.69-4.08,3.67-10.24,7-14.99,10.56-2,1.35-4.01,2.8-6.23,4.07-1.79,1.19-6.31,3.18-7.93,2.34-1.18-1.14,1.62-3.04,2.61-4.06,6.51-5.02,13.75-8.17,20.03-13.05,5.81-4.57,12.14-9.63,16.02-15.86.88-1.81.3-2.81-1.64-2.9-3.56-.27-10.08,2.66-13.48.72-.79-1.65,2.02-2.15,3.96-2.61,7.18-.81,15.45-.3,22.27-.85,25.1-1.41-11.5-5.49-17.77-5.94-5.67-.52-10.88-.77-16.05-.7-5.37.01-13.63.65-15-6.22-.99-8.57-1.99-17.51-1.6-25.98,2.14-11.89,4.16-23.94,4.72-35.91,1.47-9.96,1.68-21.6,1.25-31.55-.03-9.7,1.98-21.04-4.33-29.17-4.9-3.48-3.02,11.74-3.25,14.38.05,6.39-.35,13.39-.25,19.58.4,20.37-2.64,40.53-4.33,60.73-.22,7.24,0,15.1-.03,22.37-.07,3.09.01,6.53-1.83,9.06-4.97,4.84-14.67,1.75-20.77,2.34-20.7-.91-41.49.27-62.39,1.07-18.32.26-37.27-1.31-55.53.56-49.89-.22-38.59,5.24-35.27-21.1,1.12-9.19-.52-17.81,1.58-26.69,2.94-13.97,1.75-27.6,2.03-41.75.04-7.09-1.29-14.74-1.89-21.64-.55-6.89-.3-14.17-1.36-21.05-.37-11.45,2.92-24.86-12.85-26.81-17.1-1.84-34.07,1.18-50.9-2.27-16.42-1.59-32.93-1.78-49.36-1.19-5.98.27-11.71-.47-18.08-.19-9.09.38-18.26,1.75-27.29,2.29-14.42,1.44-28.79.39-42.91,4.12-13.17,2.57-16.18,7.79-.19,6.51,13.78-1.95,28.09-1.3,41.94-2.71,17.52-1.49,34.93-1.81,52.22-3.09,21.17,1.06,42.08,1.19,63.31,2.26,9.72.67,30.44-1.75,35.8,5.82,1.33,4.51.02,9.21.65,14.43.74,7.04.77,14.35,1.19,21.44,1.01,10.3,1.19,19.11,2.17,28.98.53,14.23-1.13,28.46-1.7,42.72-.17,8.62-1.3,17.08-2.54,25.45-.57,4.85-.05,11.65-5.4,13.54-5.27,1.24-10.89.07-16.32.4-11.36-.08-25.49,1.48-37.08.44-13.45-.03-28.25.64-42.02,1.04-13.1.08-27.42-.71-40.45.75-23.36.95-46.98-.32-70.39.38-7.94.56-9.93-3.98-8.58-11.13.85-4.76.31-10.55,2.64-14.25,4.78-6.04,16.94-3.73,24.36-4.69,25.08.13,50.26-1.69,75.16-2.89,16.75,1.05,34.15.51,50.77,1.25,13.44.08,27.38-.58,40.88.63,13.91-.46,11.76,6.05,11.81,17.58.4,3.32,1.32,5.81,3.57,3.98,3.89-4.3,3.18-12.1,5.31-16.78,1.16-2.96,5.05-5.56,3.04-8.85-5.54-5.71-4.37-11.93-2.86-19.1,1.39-8.69,1.5-17.15,1.45-25.72l.27.11-.27-.11c-.02-4.72-.09-9.47-.02-14.32-.22-6.16-1.19-11.76-1.7-17.52-.65-6.54-.14-13.06-1.53-19.54-.21-3.77-5.95-15.99-7.28-6.04-.13,9.45.7,19.41,1.23,28.68.49,6.21,2.3,13.94-6.94,12.53-16.42-2.75-33.05-1.48-49.47-1.21-13.6-1.62-27.35-2.64-40.97-1.99-10.48.31-20.09.72-30.85.93-9.51.82-17.5,2.26-26.16,3.12-7.9,1-15.54,1-23.37,2.14-5.93.6-11.77,2.95-17.49,4.21-7.6,1.81-4.08-6.07-4.07-10.64.49-6.05.34-12.49.59-18.48.06.67.14,1.33.25,1.99.67,4.36,1.01,9.32,2.99,11.44,2.78,3.02,7.14.11,7.02-3.74.08-1.81-.4-4.2-.77-6.25-2.31-11.25.57-18.02,10.98-21.71,4.97-2.16,8.36-.97,14.69-1.37,7.7-.76,15.37-1.1,23.07-1.17,7.09-.1,14.62-.94,21.85-1.4,9.17-.14,18.42.97,27.5-.83,7.67-2.29-1.38-5.97-4.91-6.13-9.76-1.07-19.61-.5-29.19.89-3.21.51-5.76.92-8.84.88-3.34,0-6.61-.79-10.01-.9-7.56-.32-14.67-.02-22.21.7-5.83.15-11.35,1.17-17.1,2.67-7.32,1.51-12.53,7.24-14.44,14.67.93-7.73,2.03-15.5.06-23.09-3.45-9.28-5.03,2.18-6.81,6.08-3.73,6.26-16.36,1.91-22.84,3.23-6.82.27-12.87,1.27-19.2,1.87-9.38.57-18.85-1.54-28.26-1.08-6.74.04-13.28.26-19.88.61-6.83.35-14.39-.33-21.48.33-13.89,1.83-26.8-.63-40.46-1.14-7.83-.71-17.51,3.08-3.83,6.27,16.67,3.29,33.64,3.83,50.5,2.93,5.87-.05,11.65-.95,17.46-1.25,5.35-.02,10.87.26,16.34.06,17.27.01,33.71-1.14,50.75-1.38,5.17.37,12.4-1.37,16.67,1.07,5.5,2.76.97,25.11,1.37,31.03-.24,20.63-3.93,40.98-4.67,61.58-.05,9.04-1.06,17.81-1.48,26.64-.26,4.95,1.78,12.08-3.46,14.68-6.99,2.28-15.67,1.03-22.52,1.7-11.54-.04-24.03.65-35.49-.37-6.35.96-11.24,1.46-18.52,1.25-8.32-.23-17.56,1.61-25.48-.08-8.6-.29-19,.59-27.44.22-5.01-.13-10.24-.19-14.95,0-7.55.94-8.14-6.16-7.89-12.01.11-7.77-1.49-14.64-1.15-22.03,1.25-10.82,2.35-21.53,2.09-32.42-.22-6.82-.04-13.16.13-20.26-.07-6.76-1-13.23-1.29-19.64-.32-4.68-.04-9.53-.08-14.34.02-.05.03-.11.04-.19l-.04.07c-.02-2.81-.16-5.61-.59-8.34-.46-3.06-1.2-6.33-2.73-8.99-1.86-3.32-4.18-2.52-4.36,2.4-.43,19.35.04,38.96,1.28,58.21.63,14.84-.97,30.12-.66,44.92,1.07,35.86,2.49,33.35-32.81,34.22-7.35-.14-15.48.04-22.72.74-6.67.9-11.09-.15-10.86-7.28-.2-5.66-2.68-13.09.01-18.6,4.8-9.98-31.85-1.27-36.56-1.29-8.34-.23-36.11,9.84-39.81,4.84,1.22-4.42,16.44-2.91,20.95-4.62,57.29-9.87,30.96-14.19,86.83,5.13,4.53,1.3,6.09.23,3.56-2.47-5.68-5.95-15.7-9.2-22.82-12.06-8.66-3.83-18.31-6.53-27.39-8.57-7.22-2.15-14.59-3.1-21.84-5.17-5.47-1.67-10.85-3.93-16.33-5.62-13.91-4.51-27.56-7.29-41.67-10.73-11.71-2.86-24.43-4.17-34.73-10.72-.15-.11-.28-.22-.4-.32-.86-.78-.6-.78-.08-.89,3.27-.69,2.93-3.52.87-5.82-10.16-9.02-25.7-8.17-38.1-11.97-9.52-3.67-18.86-7.68-28.8-10.32-2.87-.9-5.79-1.49-8.58-2.53-4.16-1.5-3.76-6.42-4.18-10.36-1.46-12.02.08-23.49-.89-35.38-2.18-12.37-7.72-9.21-7.22,3.04.24,10.75-2.9,38.46,3.59,46,2.1,2.4,5.12,3.22,8.05,4.17,4.07,1.29,7.92,2.73,13.07,4.37,15.11,5.03,31.08,8.72,46.56,13.07,2.23.87,10.57,2.17,10.05,5-3.03,2.5-10.27.15-14.19-.42-4.8-.87-9.57-2.12-14.15-3.36-11.34-2.91-21.41-7.16-32.31-10.86-8.63-3.99-20.35-3.49-26.67-11.55-3.22-5.36-2.56-12.69-4.03-18.73-.84-6.89,1.67-13.91,1.83-20.79.28-7.9,1.62-15.56,1.7-23.49.04-6.18,2.47-11.09,2.01-16.97-.24-7.39-6.64-5.88-12.12-4.32-6.64.52-13.12,3.18-19.77,2-11.49-1.72-23.1-.08-34.62-.52-2.89-.49-5.76.04-8.76.14-4.52-.08-4.86-5.96-4.89-9.48-.86-24.55.67-50.25-1.88-74.89-.71-5.47-1.04-11-2.13-6.98-4.9,46.8-1.27,91.6-2.48,142.07-2.83,67.03-1.31,133.32-2.04,200.2-.25,31.17.23,62.34-.05,93.58-.43,23.2-1.1,47.24.15,70.33-.09,12.44.46,25.09.54,37.42.13,13.56-1.91,27.52-1.74,41.38.74,83.47-.05,166.9.06,250.1-.3,35.82,1.81,73.54,1.89,109.76-.98,66.19.53,132.56,2.95,198.54,1.97,38.09,4.04,5.15,4.68-10.64,2.24-35.49-.67-70.79-.19-106.35.2-4.02-1.07-9.07,2.43-11.5,6.32-3.98,14.25-6.86,21.43-9.65,21.23-6.91,41.89-14.99,63.25-21.18,5.09-2.13,9.71-3.15,15.06-3.93,17.73-3.92,35.46-7.09,53.56-10.1,15.14-3.79,31.1-2.97,45.92-8.02,3.61-.64,12.86-6.06,4.14-6.51-19.7,1.49-39.37,6.17-58.77,9.83-10.1.83-20.66,1.58-30.51,3.82-15.1,2.79-29.58,7.29-44.78,10.84-13.52,4.31-26.67,10.22-40.05,14.37-5.13,1.55-11.8,4.13-16.85,6.56-2.87,1.5-5.5,3.23-8.56,4.5-1.68.6-3.17.48-4.2-.32-3.62-4.31-1.36-12.43-2-18.31-.04-18.99-.67-34.91-1.42-50.46-1.53-33.24.63-67.73-2.68-100.87-.71-7.67,1.07-13.56,1.14-21.24.62-20.89-.09-41.54.91-62.47.2-18.44,1-35.07.48-53.8.48-12.89-1.04-28.58.13-41.25,1.32-5.64.41-15.03.17-21.36-.69-7.99.41-16.01.21-24.12.22-5.82-.07-11.38-.44-17.05-.25-10.91.85-23.04.55-34.19-1.5-15.24,6.17-15.37,17.3-16.52,0,0-.02.02-.02.03l.03-.03c.99-.1,2.01-.21,3.05-.34,13.6-2.92,26.08-2.24,39.9-3.51,4.86-.7,10.95-.02,15.45-.68,10.85-3.33,5.13-18.62,5.63-26.62.16-5.01,1.48-9.95,1.67-14.93.18-8.43.16-15.01-.1-23.66-.22-3.49-.84-6.94-1.05-10.37-.35-5.06.21-9.5-.89-14.19-.48-2.56-4.41-9.86-6.42-4.19-1.74,12.31.17,26,.96,38.19.48,9.81-.81,19.33-.4,29.26-.06,10.09,2.81,20.57-11.36,19.92-6.98,1.77-14.14,1.33-21.23.67-6.44.16-12.5.67-18.88,1.42-6.31,1.25-12.76,2.18-19.14,2.81-2.87-.03-3.79-3.46-4.13-6.12-1.58-26.2.02-52.65.31-78.91-.64-14.85,6.93-14.51,19.07-14.88,10.3-1.59,21.04.06,31.74,0,4.42-.58,14.04,1.84,16.08-2.94,0-1.6-1.83-2.68-3.23-3.18-5.17-1.86-10.8.33-16.06-.37-8.28-1.67-16.38-2.1-24.87-1.81-6.58.11-13.57,1.91-19.98.79-3.62-2.54-1.73-9.53-2.16-13.7.07-30.55-1.27-60.94-.63-91.12.77-14.58-.53-29.79-.24-44.06.69-22.08.51-44.97.17-67.15.06-2.53.26-2.9.86-4.66.19-.52.43-.35,1.01-.72.5-.27.93-.48,1.5-.54,3.79.18,9.99,4.48,14.19,5.8,9.41,3.36,18.43,7.56,27.05,12.3,4.9,2.01,9.39,1.65,15.07,2.43,18.21,4.88,35.21,9.97,53.26,14.8,11.57,3.03,22.52,8.5,34.23,11.58,5.98,1.68,12.39,1.18,18.41,2.64,5.48,1.86,9.47,3.74,15.62,3.43,4.68-.17,9.1,1.55,13.68,2.46,9.47,1.87,19.16,3.21,29.83,2.53,12.01-1.18,23.32-4.29,35.47-5.16,9.71-.78,20.94-4.88,30.35-4.41,7.48,1.6,4.18,12.21,4.56,17.99-.55,8.75-1.37,17.37-1.38,26.07,0,0,0-.02,0-.02v.03c0,1.07.01,2.14.04,3.22-.09,13.53-.17,26.97.29,40.4-1.2,19.47-1.92,39.08-1.19,58.43.63,11.17-.64,22.36.43,33.3.16,2.82,1.01,8.59,2.59,8.65,7.92-2.91,2.94-41.02,2.78-49.18-.3-5.31.58-10.57,1.25-15.86.94-9.87,1.03-19.27,1.31-29.18.19-6.59-.24-12.65.49-19.32.96-10.16-.33-20.89-.14-30.52.41-3.64-1.57-12.76,4.08-10.57,9.13,4.48,18,10.07,26.89,15.32,7.8,4.56,14.54,10.56,22.89,13.97,3.5,1.29,6.95-1.12,9.99-.16.69.6-.15,2.56-.18,3.69.12,2.74,5.87,1.97,8.15,2.16,20.14-.29,40.11-3.67,60.26-3.64,11.97-.02,22.77.74,34.49.87,7.6-.57,10.21,3.19,14.58,6.7,1.31.42,2.3-.77,3.26-1.61,3.74-4.88,9.81-1.2,14.71-3.41,13.6-3.18,28.61-.34,42.48-.78,21.99-.08,44.15.44,66.28.95,19.24-1.11,36.93-1,56.06.77,57.4-.97,113.27,2.28,170.42-.61,16.58-.74,34.03,1.03,51,.41,15.94-.98,32.12.14,48.25-1.35,10.82-.45,19.63,4.38,28.09-4.89,6.19-4.93,13.87-6.88,19.62-12.36,5.72-3.95,10.42-10.18,15.57-14.57,1.22-1.23,2.44-2.57,3.06-4.25.68-1.59.87-4.15-1.02-4.83ZM698.05,285.25c-.04-.26-.09-.51-.11-.61.02.08.06.34.11.61ZM690.22,287.11s0,.05,0,.07c-.01,0-.02,0-.03,0,0-.03.02-.05.02-.08ZM456.34,153.84c.26,4.09,1.11,8.33,1.26,12.53v.25c-.03,2.86-.49,5.86-1.17,8.57-.1.26-.11.5-.28.56-.38-1.44-.11-4.19.08-6.66.63-4.49-.07-11.31.1-15.25ZM456.36,240.93c-.05-.32-.1-.69.02-1l.07-.05c.17-.05.56.26.93.48.38.29.96.44,1.02.75-.12.05-1.97.36-2.05-.18ZM498.4,238.82c-1.74.73-3.45,1.79-5.25,2.25l-.2.04c-2.07.45-3.08-.61-.98-1.83,2.13-1.13,5.14-2.06,7.52-1.4.21.2-.27.55-1.09.94ZM504.93,232.62l-.14.04c-.55.06-1.34-.43-1.93-.58-.65-.21-1.3-.39-1.11-.41.25.03,4.15.05,3.18.95ZM511.19,234.69c-.08-.1.32-.55.61-.81.28-.26.84-.27,1.02-.06l.05.11c.07.45-1.32.94-1.67.77ZM528.07,144.91c-.72,4.05-.81,7.67-1.14,11.17-.54,4.49-.32,8.15-.33,11.94-.21,4.06-1.06,8.29-1.25,12.43-1.23,11.21,1.14,23.11.87,34.18-.54,4.14-5.33,4.63-8.57,5.87-2.46,1-4.94,1.66-7.61,1.71-6.91-.44-13.91.22-20.64,1.86-2.89.71-6.11.78-9.3,1.54-3.52.76-7.15,2.33-10.55,3.2-3.08.77-6.18,1.17-9.16,1.76-1.35.26-2.91,1.16-4.01-.01-1.2-1.77-1.04-5.04-1.07-7.38.04-3.74.03-7.33-.1-10.85-.3-5.84.39-11.43.71-17.22.16-4.2.03-8.18.19-10.72.5,3.97.37,9.81.65,14.18.09,3.14.79,6.16.66,8.68-.91,6.97-.89,15.1,6.81,18.08,8,2.51,16.07-1.73,24.22-2.8,5.74-1.25,12.6-1.21,17.66-4.14,3.37-2.31.23-4.67-2.58-4.91-6.43-.78-13.04,1.16-19.06,2.89-4.96,1.87-9.77,3.35-15.04,2.33-1.28-.21-3.34-.44-3.99-1.5-1.24-2-.24-5.5-.51-7.98-.17-3.83-.17-7.32.26-11.25.28-4.68-.6-10.17-.98-14.56-.9-7.16.77-14.58-.97-21.58-.56-2.43-1.73-5.32-3.59-7-1.5-1.49-2.9-1.92-3.31-3.44-.53-4.9-1.04-13.6,6.35-13.04h.18c9.5,1.02,18.58.88,27.82-.03,7.01.16,13.6.88,20.69-.15,3.28-.38,6.63-.72,9.9-1.15,2.14-.29,5.88-.81,7.03.58,1.16,1.72.12,5.17-.19,7.33ZM529.84,223.95l.27-.03.17.23c-.15-.06-.29-.13-.44-.19ZM565.06,238.86c-.23-.05-.77-.77-1.24-1.27-.46-.46-.63-.97-.44-1.3.33-.65,1.91.35,2.26.66l.05.12c.08.45-.39,1.93-.64,1.8ZM570.11,240.02c-.15.08-.36-.31-.64-.75-.35-.54-.6-.92-.34-.83.28.12,1.08.39,1.36.63l.05.11c.03.19-.29.77-.43.84ZM579.44,243.37c-.75-.09-1.86-1.47-2.44-1.86-.45-.46.27-.2.56-.1l.18.06c.66.32,2.03.36,2.07,1.28,0,.3-.17.59-.37.63ZM591.42,251.88c-1.64-.24-3.84-.32-5.22-1.4-.95-.85-.38-2.68.65-2.65,1.08.03,2.06.75,2.97,1.32.83.6,2.33,1.63,2.7,2.38l.02.08c.03.27-.4.33-1.11.28ZM608.87,270.3l-.08.05c-.7.08-1.42-.58-2.2-.87-.73-.42-1.71-.67-2.22-1.17.82.02,1.98.46,2.86.63.7.13,1.9.56,1.64,1.36ZM606.77,250.56c-1.73.03-3.58.66-5.07.11-.23-.02-.5-.16-.78-.35.16.23.57.69.61.91-.1.15-.5-.73-.63-.93-1.52-1.06-3.3-4.01-.38-3.01l.18.06c3.01,1.17,6.65,2.08,9.61,3.34,1.03.4-2.88-.27-3.55-.14ZM669.82,280.18l.05.1c-.08.32-.3,1.43-.65.41-.48-.83.2-.64.61-.51ZM646.51,258.22l.11-.05c5.26-1.05,10.58,2.25,15.58,3.81,1.98.77,3.95,1.18,5.71,2.08.78.54-.57.69-2.63,1.56-5.98,2.83-10.7,5.39-15.79-.7-1.64-1.75-2.56-2.17-3.71-2.98-1.93-.96-.86-3.04.74-3.73ZM652.07,275.84c-.04.43-.55,1.38-.7,1.67-.12.15-.17-.14-.19-.56-.02-.44-.17-1.01.05-1.21.16-.17.66-.13.79,0l.05.1ZM638.78,256.93l.21.05c1.25.34,2.9.41,3.41,1.11.66,1.35-1.08,3.71-1.85,4.91-.24.27-.46.45-.78.5-1.09.25-2.38-2.8-3.29-4.12-2.12-2.99-.86-3.31,2.31-2.45ZM655.97,299.77c-1.3.18-2.73-.26-4.02-.75l-.17-.07c-3-1.2-5.85-2.35-9-3.29-5.16-1.36-9.63-3.24-9.21-9.02.49-2.41,3.13,2.2,4.29,2.61,2.26,1.32,4.92,1.96,6.92,3.49,1.94,1.16,3.93,2.31,6.32,2.64,1.96.21,4.77.84,5.69,2.06,1.02,1.08.59,2.2-.82,2.31ZM676.1,302.47c-.86.65-2.22.71-3.28.64h-.15c-1.49-.18-2.62-.82-4.02-1.28-2.15-.87-5.07-.67-6.08-2.69-.86-1.3,1.13-7.56,2.89-4.82.85.96,1.75,2.37,2.77,3.27,1.01.91,2.64,1.52,4.38,2.18,1.55.6,4.61,1.99,3.49,2.7ZM758.03,324.54c-.57.42-.76.59-1.27,1.09l-.04-.03c-.06-.37-.02-1.54.8-1.33.41.04.68.11.51.28ZM766.53,325.62h-.08c-.14-.26-.22-.41.17-.4.19.18.06.25-.09.4ZM771.21,328.43c-.44-.08-.64-.42-.84-.77-.23-.46-.73-.7-1.24-.88-1.94-.68-1.59-1.31.24-1.51,1.45-.02,3,.14,4.51.22.88.07,1.51.2,1.64.49l.03.07c-.09,1.14-2.86,2.69-4.33,2.39ZM784.25,326.5h0s0,0,0,0h0ZM785.29,326.57h-.15c-1.54-.08.11-.54.61-.41.36.15-.24.42-.46.41ZM800.46,349.54l.07-.09c.1.07.19.14.29.21-.16.03-.29,0-.36-.12ZM801.25,329.57c-1.63,2.46-4.49.34-6.83-.44-1.37-.54-3.73-1.78-3.6-2.4.01-.38.38-.52.73-.63.9-.25,1.92-.24,2.95-.25,2.12-.02,4.3-.05,6.38-.09h.23c4.85.15,1.77,1.08.14,3.81ZM806.26,326.47c.21-1.83,6.85-1.3,7.9-.38l.16.1c1,.66,1.63,1.75,2.12,3.03.54,1.65,1.47,3.37,1.5,5.09-.47,4.31-11.82-6.18-11.68-7.84ZM832.43,360.27c-2.22.56-5.01,1.03-7.14,1.5l-.15.02c-1.12.11-.02-.93.35-1.24,1.36-1.2,2.94-1.36,4.7-1.25,1.41,0,3.06.16,3.02.5-.11.29-.47.35-.78.47ZM832.94,331.4c.21.19,1.67.82,1,.94h-.11c-.42-.19-1.42-.81-1.63-1.05-.13-.2.37-.12.74.11ZM833.36,346.58c-.4.18-1.14-.82-.9-1.04.39-.25,1.75-.08,2.2.04v.06c-.24.29-.94.81-1.29.94ZM835.82,331.64c-.86-.24-.44-1.31-.81-1.86-.19-.27-.6-.43-1.4-.59-1.42-.27-3.86-.56-5.97-1.15,1.73.99,2.83,1.72,1.08.96-1.01-.54-2.07-1.12-3.11-1.69.02,0,.03.02.05.03.59.28,1.26.51,1.98.71-1.14-.65-2.56-1.42-3.6-1.95.09.25.41.56,1.06.94-.71-.39-1.41-.77-2.09-1.13-.19-.12-.79-.46-.5-.46l.08.02c.1-.02.67.24,1.45.63-.52-1.53,7.94-1,9.28-1.09h.25c3.15.08,7.53.21,8.73,3.52.4,3.02-5.07,3.69-6.48,3.12ZM855.27,357.95c-1.8.32-4.26.53-6.07.64h0c1.85-.33,4.18-1.12,6.09-.91.31.06.32.17-.02.28ZM857.64,357.42c-.96.05-1.84.07-1.48,0,1.35-.17,2.78-.39,4.12-.47h.22c3.18.11-2.12.44-2.86.46ZM862.38,327.95c-1.24,0-3.02.97-4.44,1.3-1.41.25-2.78-.36-3.98-1.09-1.48-.91-3.1-1.8-3.14-2.23-.03-.18.11-.25.3-.31,1.06-.22,2.36-.07,3.5-.05,2.18.22,5.1-.19,6.92.73l.15.09c.61.38,1.81,1.39.68,1.57ZM875.07,334.8l-.12-.08c-1.18-.9-2.17-2.54-3.14-3.72-1.15-1.54-2.71-1.74-4.24-2.49-1.33-.71-2.34-1.47-1.82-2.07.52-.48,1.19-.47,2.3-.54,1.7.03,3.69-.12,5.28.55,1.41.59,2.25,2.18,2.71,4.03.48,1.51,1.11,5.6-.97,4.32ZM885.07,334.59c-.06.11-.17.08-.27.03-.44-.2-1.8-1.72-2.9-2.38-.8-.54-1.57-1.03-2.34-1.69-1.93-1.81-5.51-4.18-3.26-4.65,2.13-.13,5.09-.48,6.88.77l.14.11c1.52,1.31,1.52,4.28,1.79,6.17.07.86.06,1.47-.04,1.64ZM900.46,332.66c-.11.93-.13,1.89-.48,2.7-.08.99-.16,1.8-.2,2.24-.06-.55-.07-1.14-.06-1.78-1.21.96-3.1-2.39-4.85-3.99-1.44-1.82-5.33-4.24-4.99-5.55.88-.85,2.4-.53,3.61-.64,1.96.05,4.87-.33,6.24.99l.11.11c.19.21.33.46.44.73.04-.38.1-.74.17-.97h.01c.02.35.01.86,0,1.46.37,1.42.07,3.3,0,4.7ZM906.99,330.92c-1.47-1.49-3.34-2.89-4.79-4.45-.14-.18-.16-.28-.06-.27h.06c2.08,1.21,3.86,2.93,5.65,4.67,1.29,1.58-.21.71-.86.05ZM908.48,330.94c.42.48.52.7.03.4-.35-.32-.7-.65-1.06-.98-.2-.15-.39-.31-.57-.5-.39-.39-.84-.81-1.25-1.22-.67-.64-1.34-1.27-2-1.87-.16-.17-.68-.7-.33-.58l.08.04c.08,0,.47.3,1,.75-.14-.49.15-.86,1.22-.98,2.14-.17,4.46-.1,6.63-.17,1.41-.04,2.63.03,3.21.63l.09.1c1.14,2.03-2.1,3.76-3.76,4.34-1.12.47-2.26.46-3.28.05ZM913.2,340.22h-.04c-.17-.35-.66-.91.12-.78.1.13-.08.62-.08.78ZM913.51,354.8h0c.25-.19,10.26-1.85,8.07-.54-1.15.36-2.5.22-3.77.34-1.38.04-2.95.26-4.3.2ZM921.45,355.09l-.03-.03c.36-.57,1.07.11.03.03ZM924.69,327.01c-.12.18-.5.26-.77.34-1.46.3-3.43,1.09-4.9.68-1.1-.3-2.14-1.47-1.71-1.84,1.03-.59,2.42-.23,3.57-.15.97.2,3.21.49,3.81.92v.04ZM925.83,336.73l-.11.04c-.15.02-.6.3-.79.21-.21-.24.81-.27.97-.33.18-.03.04.04-.07.08ZM930.38,355.85c-.65.04-1.77.17-2.25-.06l-.08-.06c-.37-.6.79-2.01,1.13-2.79.46-.79.94-1.82,1.42-2.4.14-.15.25-.18.35-.11.59.92.61,2.26.93,3.38.33,1.31-.34,1.98-1.49,2.04ZM938.39,345.24c-.01-.08-.02-.15-.03-.23.04,0,.08-.02.11-.03-.03.09-.06.17-.08.26ZM946.3,355.14c-.59.35-1.75.38-2.27-.04l-.07-.1c-.31-.72.53-2.17.75-3.03.23-.43.46-1.86.96-1.75.46.95.45,2.01.75,3.24.16.82.2,1.42-.12,1.68ZM996.11,257.58c.21-.33.46-.5.52-.24.06.29-.33.85-.42,1.14l-.05.13c-.06.19-.27.19-.39-.12-.13-.3.1-.6.33-.91ZM992.64,270.82v-.15c-.1-.74,1.75-10.02,2.55-6.7.42,1.21.91,4.08,2.36,5.35,2.79,2.53,5.97-.43,6.17-3.81.23-2.57-.05-5.51.84-8.11.74-2.3,1.93-4.49,3.36-6.42,3.55-5.15,11.73-6.02,17.71-7.54,6.4-1.12,12.05-1.58,18.76-2.66,6.93-.99,13.75-.12,20.56-1.04,8.7-1.98,1.41-6.51-3.45-6.89-5.94-.69-12.18-.03-17.81,1.41-4.63,1.24-9.43,1.12-14.14.91-3.65.15-7.36.49-10.82,1.37-3.59.89-7.38,2.33-10.62,4.29l-.05-.33.05.33c-.21.13-.42.25-.62.38-1.74.98-3.21,2.6-5.02,3.5-4.97,2.26-5.89-2.45-5.34-6.36.48-6.07,5.32-7.08,10.53-7.6,4.61-.55,9.63-1.71,14.59-2.07,4.75-.39,9.47-.37,14.23-.8,8.81-.93,18.5-2.24,26.91-2.94,6.91-.89,14.14-.86,21.07-1.69,3.21-.38,6.38-1.29,9.46-1.04,2.93.1,5.96.47,9,.55,5.5.21,11.34-.6,16.88-.4,14.06.59,27.83.9,42.11.44,5.71.11,11.48,1.16,17.14,1.37,4.06.19,7.94.24,11.93.36,4.56-.08,10.1.88,11.14,5.88,1.01,5.18-.23,8.69-.29,15.06-.11,2.61-.11,5.37-.19,7.94.2,11.11-5.71,7.13-13.43,6.4-5.83-.47-11.51-1.26-17.47-1.25-8.19.02-16.36,1.06-24.46.97-4.07-.17-8.07-1.22-12.21-1.53-8.93-.81-17.8-.74-26.67-.44-4.86-.07-9.71.33-14.57.77-4.44.22-8.89-.23-13.78.19-8.65.83-16.7,2.52-24.94,3.4-9.27,1.33-17.33,1.1-26.16,3-4.6,1.36-10.37,2.8-14.58,5.42-2.79,2.05-.78,3.59,2.89,3.7,4.23.16,8.52-.98,12.73-1.57,7.52-1.15,15.03-.84,22.5-1.97,11.23-1.5,21.9-2.83,32.96-3.51,4.73-.14,9.52-1.36,14.1-1.71,3.4,0,6.83.41,10.32.47,5.01.13,10.32-.55,15.36-.41,10.72.29,20.74.79,31.67.44,3.71-.16,7.42-.31,11.12,0,7.88.83,15.97,1.38,23.74,1.36,2.26.07,4.53.07,6.52.97,2.64,1.11,3.46,4.53,1.99,6.93-1.68,3.24-5.89,3.55-9.23,3.19-8.45-1.02-17.27-.2-25.79.12-4.91-.11-9.49.97-14.45.62-6-.49-12.27-1.69-18.36-2.08-6.6-.35-12.96-.4-19.42-.65-5.45.33-11.27-.09-16.78.04-2.61.11-5.09.37-7.75.43-6.19-.09-12.67-.85-19.14-.34-10.1.9-20.08,1.78-30.02,2.21-5.83.36-11.12-.22-16.91.27-3.24.29-6.74.16-9.84.7-5.19.58-11.06,3.17-16.27,2.14-3.96-1.36-2.7-7.49-2.67-10.85ZM951.68,339.41h-.03c-.03-.18-.12-.59-.14-.82.15.15.31.5.17.82ZM951.53,337.72l-.08-.04c-1.3-1.37-.6-4.08-.33-5.65.26-1.4,1.39-2.3,2.7-2.7.78-.28,1.54-.53,1.32.57-.15.88-.75,2.46-1.24,3.78-.57,1.24-1.09,4.08-2.36,4.04ZM957.58,355.78h-.21c-.41.07-1.79-.04-2.11.38-.42.12-.76-.46-.88-.85-.35-1.68.94-3.98,1.58-5.54.46-.83,1.01-.35,1.46.41.67,1.27,1.97,3.31,2.12,4.66.02.77-.78.88-1.96.94ZM958.63,346.57s.03-.08.06-.19h0c-.02.06-.03.12-.05.19h-.01ZM959.47,355.81s.09,0,.14,0h0s-.1,0-.14,0ZM960.14,338.92s-.04-.09-.06-.14c.03-.08.05-.16.08-.23.01.03.03.07.05.11-.02.09-.04.18-.07.26ZM960.24,338.5l-.03.03c-.05-.1.14-.53.22-.71,0,.02-.15.57-.18.67ZM958.08,335.58l-.12-.16c-5.55-7.47,2.78-7.97-1.42-9.15-.36-.17-3.3-.23-2.3-.77,1.8-.66,5.48-1.17,7.55-.75,3.82.62,2.07,5.62,1.11,8.34-1.24,3.98-2.87,5.29-4.84,2.48ZM963.33,346.11c-.02-.06-.05-.12-.08-.17h.02c.03.06.04.11.07.17h-.01ZM968.08,355.78c-.93.63-2.71.79-3.74.62l-.12-.06c-.34-.19-.36-.65-.19-1.37.35-1.27.69-2.99,1.15-4.26.4-.99,1.15,1.68,1.55,2.11.69,1.25,1.91,2.45,1.35,2.96ZM969.46,353.19c-.2.13-.46-.33-.61-.53-1.18-1.99-2.23-4.75-1.69-7.05l.06-.08c1.08-.85,2.51,6.98,2.24,7.66ZM976.08,330.43v-.04c-.02-.05.08.37.11.49.03.13-.08-.34-.11-.45ZM979.47,341.57c-.25.28-.59-.04-.82-.22l-.04-.05c-.03-.1.2-.21.56-.44.27-.17.64-.43.69-.31.07.09-.19.79-.39,1.02ZM970.42,331.71c-.93-.17-.98-.84-1.12-1.58-.13-.93-.25-1.72-.13-2.83.49-3.24,3.51-2.97,6.88-3.16,3.7,0,9.17-.53,12.4-.15l.11.02c3.37.85-7.05,3.1-8.2,3.61-3.17.89-6.71,5.18-9.94,4.09ZM987.92,346.4c-.62-.27-1.58-.6-1.51-1.36l.02-.16c.9-3.05,2.26-2.11,2.84.47.51,1.64-.04,1.66-1.35,1.05ZM993.71,326.2c-2.33-.15-3.62-1.82-.43-2.06,2.19-.06,4.25-.12,6.2-.17.38.02.84,0,1.04.27l.03.07c.02.54-.72,1.09-1.18,1.4-1.59,1.13-3.62.66-5.66.49ZM1005.66,349c-1.47,1.74-5.69.39-7.2-.61l-.1-.09c-1.37-1.32-.29-3.96-.21-5.85.18-1.71.64-3.5,2.42-3.78,4.06-.48,6.64,7.61,5.09,10.34ZM1007.49,324.59c-1.86.57-3.72,1.74-5.34.83-.39-.22-.93-.6-.96-1.05,0-.35.46-.44.79-.49,2.16-.07,4.91-.38,7.07-.03v.04c-.26.35-1.08.51-1.55.71ZM1013.76,350.29l-.03-.06c0-.15,0-.82.08-.73.03.09.06.6-.05.79ZM1019.14,350.26c-1.39.32-3.77.54-5.02-.02l-.08-.07c-.54-.77.19-2.42.02-3.44.02-2.61,1.88-1.03,3.52.49,1.27,1.22,2.9,2.52,1.57,3.05ZM1024.68,337.82s-.02-.04-.03-.06c.02,0,.05,0,.07,0-.01.02-.03.05-.04.07ZM1033.64,355.58c-.19,0-.36-.01-.55-.02.18-.03.36-.06.55-.09,0,.04,0,.07,0,.11ZM1033.93,352.23c-.03.15-.09-.18-.11.11-.01.13-.01.42-.04.79-.14,3.77-2.34-1.22-3.21-2.89-1.14-2.46-1.79-5.66.68-6.89,3.08-.55,2.5,7.19,2.68,8.86v.03ZM1049.63,357.1h-.17c-6.63-.14-6.26-2.92-3.6-8.33,1.06-2.29,2.07-4.85,3.91-5.62,2.5-.72,2.76,2.09,2.57,4.11-.33,3.17,2.26,9.53-2.71,9.84ZM1423.49,334.89c2.11-1.92,5.56-5.87,7.41-6.76l.07-.03c3.24-.59-6.38,7.9-7.27,8.6-4.09,3.41-8.61,6.76-12.87,9.41-.43.24-.57.26-.43.03,3.93-3.81,8.86-7.5,13.08-11.24ZM1268.56,320.01c2.03.05,4.99-.15,6.75.14h.01c-7.86,1.35-16.3.77-24.32,1.28-1.7,0-4.34.34-5.75.01,7.51-2.11,15.05-1.28,23.31-1.43ZM1174.21,325.15c.15.05.51.44.44.44h-.05c-.1-.09-.55-.5-.39-.44ZM1165.64,328.04c.15-1.04.77-2.11,1.87-2.41.37-.08,3.94-1.05,2.62.06-.58.32-4.54,4.05-4.5,2.5v-.15ZM1154.7,327.74c.5.04-.63.53-1.06.85-.46.32-1.13.6-1.2.51v-.05c.31-.31,1.69-1.25,2.26-1.31ZM1152.69,327.98c.35-.08,1.15-.18,1.17-.08-.09.2-1.64,1.24-1.96,1.22l-.04-.04c.03-.24.47-1.04.83-1.09ZM1143.04,328.93c1.37-.23,3.09-.29,4.51-.45,1.93-.06-.67.91-1.44.8-1.12-.01-2.51.27-3.55.02l-.07-.04c-.11-.2.34-.26.55-.33ZM1090.41,337.33c.23-.13.89-.24,1.13-.2l.02.05c-.16.25-1.08,1.42-1.3,1.39-.17-.13-.17-1.11.15-1.24ZM1066.88,323.86c.35-.42,1.68-.03,2.17-.11.72.03,1.04.14.66.37l-.08.04c-.53.24-.47.19-1.32.52-.34.03-.78.19-1.1.1.02.06.04.12.05.17v.04s-.08-.08-.15-.25c-.14-.07-.26-.19-.31-.43-.05-.17-.03-.29.02-.39-.05-.18-.02-.19.04-.06ZM1081.17,353.93c-.04,1.03-.03,2.16-.09,3.12-.08.7-.2,1.34-.87,1.57l-.07.02c-1.35.27-3.06-.39-4.49-.47-2.69-.25-4.68-.18-7.83-.16-5.25.09-10.53-.04-8.65-5.86.84-2.49,2.16-10.05,4.94-10.26.4.07.68.38.9.74.94,1.5.85,4.74,2.23,6.96,1.01,1.76,2.98,2.92,5.04,2.59,1.9-.25,3.38-1.41,4.61-2.93,1.14-1.31,2.62-3.76,4.16-3.89,2.15.5-.15,6.21.13,8.58ZM1083.96,327.25c-.07-.03-.03-.08.1-.17.36-.22,1.2-.57,1.85-.89.83-.3,1.65-1.02,2.4-.96l.08.07c.37.64-.3,1.53-1.08,1.59-1.06.11-2.34.38-3.35.36ZM1093.12,356.4c-.4.22-.82.3-1.35.45-1.22.24-3.47,1.17-4.43.37l-.05-.09c-.23-.88.7-2.2,1.24-2.95,1.07-1.21,2.26.14,3.42.84.62.43,1.12.8,1.27,1.03.06.14.09.25-.08.35ZM1094.45,356.37c.05-.06.11-.12.16-.18l.31.22c-.14-.02-.3-.03-.48-.04ZM1111.48,344.56c-2.22,3.24-4.43,6.64-5.43,10.44-.61,1.92.27,2.36-1.01,2.68-1.48.31-2.96.6-4.57.56h-.18c-4.94-.27-7.42-1.8-2.62-6.56,2.36-2.51,5.78-5.82,8.67-8.43,1.95-1.59,4.57-4.6,7.01-4.46,1.31.98-1.02,4.25-1.88,5.77ZM1143.28,356.37c-.95,2.32-1.78,2.66-4.33,2.38h-.14c-4.01-.16-8.17-.58-12.35-.4-3.63-.15-14.63,2.53-11.81-4.54,2.49-4.06,4.59-8.86,8.43-12.16,3.39-1.78-.77,5.2-1.06,6.27-1.37,3.4-.19,7.36,3.48,7.06,1.5-.09,3.08-.88,4.07-1.88.86-.87,1.37-1.37,2.41-.26,5.48,6.02,10.13-.68,13.73-5.7,2.01-2.61,4.3-5.33,6.71-7.51,1.86-1.63,3.73-2.8,2.79-.63-2.06,3.57-5.09,6.45-7.62,9.85-2.04,2.8-3.36,5.02-4.33,7.52ZM1152.5,354.8l.1-.16c.34-.5.71-1.11,1.1-1.6.3-.34.65-.48.7-.25.26.67-3.43,4.43-1.9,2.02ZM1168.95,354.04c-4.11,4.43-11.19,6.3-16.8,4.54l-.06-.03c-.97-.47-.31-2.61.81-2.75,3.34-.44,7.24.57,10.15-1.66,4.6-3.56,7.81-9.08,12.05-13.36,1.79-1.66,3.85-2.81,3.43-.13-.5,2.06-2.12,4.17-3.43,5.96-1.92,2.54-3.94,5.14-6.16,7.43ZM1180.83,358.03c-.41.27-2.15.17-2.78.2-1.16.01,1.15-1.37,1.37-1.4h.15c.42.05,1.43,1.01,1.26,1.19ZM1178.69,326.89c-4.03-1.06-2.94-3.32.64-3.88.99-.09,15.55-4.5,12.81-1.75l-.09.07c-2.72,1.75-6.05,3.35-8.94,4.77-1.51.71-2.96,1.09-4.41.78ZM1188.14,357.96c-.43.09-1.41.03-2.16.06-.82-.05-1.75.17-2.35-.09l-.02-.06c.39-.65,1.7-1.37,2.24-1.75.47-.28.87.01,1.54.64.29.28.87.71.93,1.02,0,.09-.06.14-.18.18ZM1190.56,343.39c-1.34.91-2.63,2.21-3.91,1.93-1.3-.19-1.8-1.71-1.33-2.83.54-1.37,1.73-2.26,3.27-2.14h.22c2.85.4,6.59-.09,1.75,3.04ZM1205.08,348.94c-1.21,1.19-3.05,2.69-3.87,4.32-1.45,3.44,2.25,6.14-2.8,6.24h-.18c-.84-.05-1.25-.12-1.89-.39-.83-.27-.92-1.19-1.65-1.27-.16-.04-.66.26.56-.89.32-.3.63-.59.99-.91,2.66-2.34,6.16-5.47,8.91-7.37.32-.19.3-.1-.06.26ZM1212.56,359.86h-.23c-6.45.43-6.94-1.07-1.48-5.3,1.46-1.28,3.31-.53,4.52.7,4.01,3.83,1.41,4.59-2.81,4.6ZM1220.26,321.92c-6.93.81-13.98,1.46-20.64,3.28-1.88.42-3.85,1.07-5.73.72-2.71-.67-1.44-3.37,1.04-4.28l.17-.07c4.8-1.6,10.85-1.28,15.5-1.49,4.11.15,8.98-.16,12.87.58,1.71.63-2.62,1.15-3.21,1.26ZM1237.28,353.89c-.43.57-.83,1.29-.99,2.01-.43,2.05.78,3.81-.72,4.25-2.38.46-5.03-.06-7.46-.03h-.24c-5.68-.12-.65-2.17,1.59-3.34,2.23-1.07,6.86-3.57,8.05-3.8.66-.06-.03.57-.23.91ZM1258.36,357.39c-2.7,2.63-7.26,3.72-11.49,4.26-2.01.19-4.78,1-6.52.21l-.06-.05c-.93-1.45,5.58-5.1,6.84-5.89,3.66-1.97,6.78,1.05,10.58-.35,1.07-.2,2.45-1.18,3.33-1.22-.38.99-1.78,2.23-2.67,3.04ZM1279.56,353.97c-.98,4.69,1.98,6.16-4.56,5.69h-.22c-1.56-.22-3.6,0-5.29-.25-.24.31-1.76.36-2.02.28l-.05-.04c.24-.28.82-.39,1.36-.38-.23-.06-.46-.13-.67-.22-.36-.42,1.5-1.32,3.4-2.31,1.02-.34,8.54-5.1,8.06-2.77ZM1286.04,341.18c.54-.64,3.89-3.04,6.84-4.83,2-1.26,4.53-2.54,5.79-4.5,1-1.36,1.32-3.15,2.89-3.94,1.09-.63,3.85-.55,4.2.76.05.67-.43,1.13-.9,1.64-1.73,1.62-4.01,2.94-6.05,4.26l-.21.13c-3.76,2.3-7.95,4.61-11.88,6.47-.36.16-1.04.43-.67,0ZM1305.25,358.28c-5.17.26-10.09,1.34-15.25.67.02,0,.05,0,.08-.01-.04,0-.07,0-.1,0-.1-.01-.21-.02-.31-.03l-.07-.04c-.8-.77,2.23-1.51,2.83-1.66,3.29-.79,6.94-.3,10.46,0,1.27.13,6.89.63,2.37,1.05ZM1312.29,351.59c-.08.13-.55,0-1.04-.09-.69-.18-2.05-.34-2.55-.58-.13-.1.17-.21.65-.32.54-.1,1.27-.37,1.74-.31l.17.05c.36.12,1.17,1.07,1.03,1.25ZM1337.77,349.62c-1.05.56-4.54-.19-7.53-.45-1.23-.13-2.65-.26-3.78-.55-3.22-.83.67-1.84,1.84-2.36,2.19-.87,3.81-2,5.39-3.53.86-.7,3.47-4.1,3.19-.98l-.02.13c-.36,1.4.17,3.26.89,4.62.39,1.08,1.11,2.43.02,3.11ZM1334.67,335.21c-.42-.07-.72.22-1.04.46-.51.39-1.65,1.36-.53.1,2.62-3.06,6.65-5.68,8.89-8.97,1.39-2.17,1.09-4.58-.59-5.44-1.99-1.06-4.66.2-6.72,1.18-5.14,2.88-11.21,1.72-16.77.93-2.83-.29-9.13-1.08-9.76-2.86-.33-.87.46-1.35,1.29-1.75,3.27-1.36,7.27-1.03,10.84-1.18,2.86-.05,5.71-.04,8.54,0h.22c8.12.11,16.4.5,24.57.8,3.47.18,8.75.08,10.28.94,1.55.9.26,2.24-1.29,2.67-2.82.93-6.17.89-9.04,1.85-4.79,1.75-10.23,6.37-14.68,9.04-1.31.79-2.88,2.1-4.21,2.24ZM1357.32,339.82c-3.02,2.03-7.9,3.73-9.47,7.04l-.08.15c-1.14,2.35-1.86,4.52-4.68,4.66-1.11.05-3.83.03-3.4-1.6.39-1.13,3.2-2.6,5.95-4.16,4.51-2.46,9.08-5.25,13.62-7.5.72-.31-.08.27-1.95,1.41ZM1368.29,357.98l-.21-.07c-2.93-1.17-6.5-3.26-6.89-6.66-.05-1.64,1.48-1.96,3.68-2.14,2.9-.35,5.95-.31,8.78.22,2.52.51,4.99,1.22,7.61.84,1.15-.05,3.07-.61,3.43.83-.32,6.1-11.09,9.33-16.41,6.99ZM1390.03,357.02h0c-.11.08-.81.66-.91.6.11-.14.75-.47.91-.6ZM1389.83,331.69c.08-.07,1.11-1.01,1.27-1.16h0c-.13.12-1.14,1.04-1.28,1.16ZM1392.69,357.94c-.26.08-.92-.02-1.47-.06-.86-.08-2.07-.09-1.69-.46.56-.41,1.39-1.01,2-1.2h.13c.39.15.85.95,1.07,1.3.12.23.11.36-.04.41ZM1391.52,325.14c.47.62.91,1.22,1.2,1.62h-.01c-.34-.4-.77-1-1.23-1.62-.67-.12-1.34-.27-2.01-.47-2.64-1.04-5.22-.07-7.73.83-3.75.84-7.4-2.56-11.26-2.8-.74-.12-1.58-.19-2.18-.43-1.56-.94,1.28-2.56,2.21-2.84,3.67-1.08,9.02-.58,13.21-.98h.21c2.16-.09,4.4-.2,6.57-.17,4.51.16,7.67,1.73,11.64,1.49,3.75-.14,7.65-1.81,11.67-1.31,1.12.11,2.04.12,2.71.78,1.01,1.73-4.27,4.14-5.6,5.04-3.32,2.07-7.22,1.56-10.49,1.39-3.1-.05-6.03,0-8.92-.53Z" fill="#8b0000"/><path d="M1289.41,161.58c-8.08.21-15.62,1.31-23.34,1.7-8.42.77-16.81.13-24.93,1.63-3.42.84-6.86,1.71-10.26,3.05l-.16.06c-2.46.78-7.21,3.53-2.74,5.13,3.69,1.01,8.5-.02,12.42-.43,8.24-1.08,16.4-.27,24.57-1.13,7.4-.61,14.04-.87,20.8-1.12,5.43-.15,11.13.2,16.54-.29,4.46-.75,8.33.09,12.72.76,4.66.78,9.66.68,14.28,1.1,4.09.31,7.96,1.01,11.98,1.53,7.84.96,15.9,1.9,23.99,2.29,5.49.32,10.8,1.66,16.23,2.53,4.06.39,19.7,3.41,20.92-.27-.65-4.45-11.01-5.94-14.8-6.61-4.06-.69-8.22-1.6-12.42-1.85-3.39-.25-6.81-.3-10.19-.52-4.92-.29-9.32.08-14.05-.95-13.07-3.83-26.69-4.88-40.23-5.66-1.68-.05-3.26-.11-4.95-.07-5.55.24-10.49-.96-16.37-.87Z" fill="#8b0000"/><path d="M1407.49,469.08c.97-4.24.98-8.74.8-12.99-.4-3.27-.78-6.49-.26-9.61.41-2.82,1.59-5.64,1.92-8.48,1.02-5.86,1.16-11.72.95-17.6-.2-3.16.27-6.33.23-9.79-.1-4.39-1.17-8.74-1.66-13.06-.93-6.18.3-12.78-2.26-18.56-.94-2.17-3.12-6.26-5.88-5.16l-.08.05c-2.22,1.77-1.36,7.33-1.32,10.27.29,6.75.45,12.95,1.3,19.4.39,4.38.56,9.94,1.19,13.6.6,3.94-.08,7.83-.36,11.87-.3,5.65-.72,10.72-1.12,16.48.11,7.58-.62,15.27-1.35,22.78-.63,10.25,5.68,9.56,7.88.79Z" fill="#8b0000"/><path d="M1454.08,499.55l-.1-.04c-5.49-1.61-9.66,3.1-14.4,4.84-2.83,1.06-6.27,1.24-9.2,2.2-2.55.77-4.94,1.99-7.35,3.12-.27.12-.82.34-1.08.41-1,.31-1.05,0-2.09-.14-1.05-.11-2.69.2-3.97.44-.9.17-1.63.27-1.86.21-.15-.05-.09-.11.03-.22.41-.35,2.3-1.23,4.86-2.25,8-3.61,20.42-3.57,19.59-9.48-.44-1.15-1.7-2.15-1.94-3.36-.19-1.2.4-2.32.69-3.49.99-2.24.54-4.36,3.52-5.59,2.84-1.19,6.3-1.5,8.89-2.2.91-.35.54-.8-1.08-1.32-1.38-.45-3.56-.92-6.07-1.36-21.76-4.22-43.55-2.88-65.72-3.54-14.35-.48-28.52-1.15-42.92-.75-15.25.84-30.14,1.21-45.14,1.21-7.14.21-16.23.32-23.4,1.54-3.95.55-7.09.79-10.73.34-9.57-1.33-21.8-.45-31.01-.4-7.39.05-15.02,0-22.42.07-13.98-.33-29.8,2.56-43.88,2.39-4.84-.57-10.17.69-15.05,1.22-4.6.37-10.63.25-15.39.89-3.7.37-8.58,1.21-12.11.88-2.49-.29-3.13-1.15-4.57-1.36-3.59-.12-7.58,1.64-11.56,1.89-4.73.37-9.33.2-14.01.67-29.45,3.27-59.35-.48-88.96,1.42-18.29.75-35.68-.29-53.85.36-14.1-.72-28.39-.33-42.49-.55-1.94-.21-1.28-.55-2.53-.64-6.71-.49-15.76.17-22.34-.02-10.9-.88-22.06.45-32.8-.2-6.11-.36-13.49,1.23-19.86,1.63-8.82.78-18.62.39-27.72,1.47-25.51,3.19-13.94,5.94-41.64.76-11.7-1.28-22.94-1.5-34.53-2.73-10.81-2.4-21.87-5.02-32.91-6.14-5.87-.96-11.34-1.4-17.33-2.05-5.37-.67-10.77-1.41-16.15-1.51-6.26-.26-11.99-1.69-18.58-2.36-11.25-.99-22.86-.61-34.1-1.42-9.9-.29-19.61-1.92-29.54-2.13-4.32-.4-8.24-.12-12.58.26-4.58.6-11.18.18-15.29,2.51-3.38,3.6,12.23,4.38,14.31,4.26,14.45-.28,29.05,2.96,43.54,3.02,18.44.62,37.29,3,55.72,3.18,3.97.48,7.89,1.53,11.95,2.17,5.91,1.03,12.28,1.02,18.37,1.77,11.42,1.62,21.83,3.28,33.45,4.64,6.93,1.07,14.18,1.25,21.17,2.01,12.6,2.23,25.23,4.48,37.93,5.65,20.43,1.65,3.18-4.73,7.08-6.17,17.53-2.76,14.64,10.26,18.07,22.27,1.23,7.78,5.03,14.69,2.24,22.2-.92,2.7-1.96,4.86-2.51,8.35-.48,8.81-1.04,17.85-1.57,26.59.09,6.03-3.3,7.45-8.64,6.29-6.7-1.19-13.66-1.69-20.32-2.82-14.52-2.06-29.14-1.2-43.61-2.01-14.64-2.66-29.63-4.08-44.51-4.77-7.56.16-15.44-.74-23-.52-7.9.63-15.6-.4-23.64-.55-16.8.28-33.8,2.55-50.6,2.73-8.65-.03-17.71.48-26.28,1.76-6.68,1.81-22.37,3.12-20.45,7.01,7.46,3.14,18.08-.09,26.51-.38,16.38-.09,33.83-1.03,50.07-1.86,11.9-.82,25.21-.35,36.95-1.03,6.72-1.02,12.45-.3,19.06.56,12,.85,24.36.06,36.29,1.75,11.38.68,23.58,1.92,35.29,2.14,9.03-.21,18.02,1.73,26.9,2.84,5.3.58,10.25.85,15.17,1.36,5.28.61,12.87.39,14.22,6.69.67,6.1.32,13.03.52,19.22-2.57,22.56-3.24,47.18-4.21,70.1-.42,8.85,3.75,18.33,6.77,3.52,1.82-11.47.21-23.24.54-34.54.84-6.83,2.75-13.91,3.08-20.77.91-9.04.85-17.94,1.54-27.04,1.49-8.17-.45-17.6.57-25.62.67-2.48,2.1-4.56,3.19-6.91,3.68-6.34.27-14.61.66-21.07.97-6.76,1.37-13.6.16-20.32-.09-6.46-2.67-14.24-4.15-20.69-1.23-5.41,6-1.41,8.66-1.31,5.52,1.26,11.85.25,17.47,1.24,3.54,1.05-3.45,2.55-4.87,3.08-3.36,1.07-1.46,1.97,1.86,2.54,15.5,2.18,31.45,1.34,47.04.85,27.33-.53,54.76,1.92,81.9,1.09,26.95-.51,54.43-.2,81.47-.47,8.89,0,17.06.6,25.77.46,10.85-.44,21.15-1.03,31.73-1.23,26.15,3.02,54.43.87,80.14,1.62,20.54,1.35,41.49.57,61.94,1.4,17.96.57,36.48-.53,54.29-.67,21.38.88,43.32,1.92,64.62,1.39,7.26.14,14.19.19,21.7.14,9.34.32,20.34-1.7,18.02,3.03-4.24,14.28,23.15-6.72,27.35-7.67,9.57-3.89,33.86-11.14,25.76-15.98ZM819.7,506.92l-.24-.02c-6.34-.76-11.2-1.58-14.24-6.13-2.8-3.12-2.75-4.68,2.04-5.06,1.51-.12,3.46-.17,5.01-.15,1.79.11,3.23,0,4.23,1.29.93,1.39.27,4.3,2.91,6.33,3.31,2.31,9.52,4.44.3,3.74ZM826.95,502.36c-2.99-.49-6.07-2.5-8.51-4.05-.42-.35-1.22-.87-1.21-1.38.44-.29,1.41.32,1.94.55,2.43,1.41,4.73,2.79,6.9,4.1.31.21.84.52.9.76v.03ZM827.24,502.38c.06,0,.13-.01.19-.02.09.05.19.11.28.16-.16-.04-.31-.09-.47-.14ZM827.98,495.49l-.07.07c-.85.39-2.93.82-3.86.14-.23-.19-.18-.35.11-.41.67-.11,1.7-.1,2.46-.16.8-.09,1.55.1,1.36.36ZM854.57,507.01h0s.06-.02.06-.02c-.01,0-.03.01-.06.02ZM875.5,504.52c-1.15.58-4.47,1.33-5.6,1.82-.07.07.04.09.09.13.04.02.06.09-.02.13-.11.07-.43.18-1.1.33-2.43.53-5.23.85-7.69.95-2.12.09-3.39.01-3-.26,2.79-1.09,6.18-1.64,9.16-2.37l.25-.05c.56-.16,9.87-1.87,7.91-.68ZM902.44,500.04h.08s.55-.09.78-.13c.51.21-.74.18-.95.17-.22,0-.05-.03.08-.05ZM893.65,509.84h-.17c-3.12.13-7.06.13-9.83-.26-.95-.08-1.54-.92-.51-1.81,4.12-2.26,9.7-1.41,14.29-1.05,17.06,1.36,2.56,2.84-3.79,3.12ZM908.96,509.57c-.41-.41-1.35-.52-1.96-.63l-.02-.03c.93-.37,2.16.58,3.03,1.09.06.29-.9-.19-1.05-.44ZM950.77,497.78c-.85.89-2.06,1.76-3.1,2.55-2.6,1.81-4.14,3.95-6.94,5.84-4.05,2.6-9.05,2.92-13.93,2.07-1.64-.29-4.47-.58-5.25-1.47-.15-.32.39-.64,1.5-.95,2.49-.68,5.92-1.1,8.54-1.82,6.84-1.36,6.39-8.16,13.72-8.07,1.74.04,4.71-.37,5.88.72l.03.06c.11.28-.08.65-.47,1.07ZM1030.77,498.31l.05.31s-.02,0-.03,0l-.05-.3h.03ZM1014.6,498.04c2.43-1.29,4.92-1.86,7.78-1.62h.22c1.03.11,6.33-.44,3.13.19-3.48.54-8.51,1.7-11.48,1.75-.15-.14.22-.23.35-.32ZM991.12,497.92c-.95.64-1.08,1.1-1.82,1.01-.96-.13-2.56-.61-3.57-.95-4.1-1.28-.69-1.48,1.33-1.45,1.49.08,4.6-.29,5.66.26v.05c-.25.49-1.15.7-1.6,1.08ZM995.49,510.13l.02-.02c.61-.11,2-.38,2.71-.43-.52.55-2.04.53-2.73.45ZM1049.35,508.71c-1.75.55-3.41.34-5.37.33h-.2c-12.48-.69-24.95.46-37.51.77-2.11-.03-8-.28-2.2-1.47,3.58-.75,7.24-1.45,10.93-2.24,5.25-.91,9.43-2.7,14.27-1.61,1.64.23,3.08,1.02,4.36,1.22,2.61.03,5.76-.11,8.54-.19,3.13.13,5.79-.73,8.27.14,1.33.81.49,2.49-1.08,3.06ZM1056.69,496.61c-1.32.37-3.92.79-5.33,1.2-.08.03-.19.06-.08.11.32.08,1.36.03,1.72.18.14.07,0,.2-.43.35-.87.32-2.5.65-3.6.53-1.44,0-4.15-1.11-1.76-2.27,1.93-.8,5.01-.71,7.25-.8h.2c.71-.03,4.25.08,2.03.69ZM1075.18,506.45l-.24.02c-1.46-.1-10.97,1.25-9.68-1.16,3.12-2.96,6.87-.79,10.48.12,1.86.37,4.15-.32,5.93-.03-.54.41-3.82.85-6.49,1.06ZM1083.67,498.62c-.91.05-1.94.1-1.7,0,1.43-.32,3.07-.76,4.51-.72l.19.03c1.95.65-2.53.64-3,.69ZM1104.12,497.06c-2.78.31-5.96.79-8.67.37-4.57-1.04,9.01-.99,9.49-.73l.06.02c.22.2-.83.31-.87.34ZM1111.25,509.7c-.4-.07-2.89.09-2.31-.52l.09-.07c.44-.27,1.06-.66,1.45-1.1.25-.22.48-.62.77-.6.39.31.56,1,1.02,1.49.69.87-.44.8-1.02.79ZM1124.6,507.59c-.54,0-3.7-.74-4.41-1.38-.41-.7,2.88-.66,3.26-.56l.17.03c1.18.33.06.61-.62.51-1-.09-2.6-.42-.3.58.49.2,1.03.41,1.53.61.31.13.46.21.37.22ZM1124.95,506.85v-.03c1.27-.41,2.9-.38,4.33-.6,1.49-.08,3.18-.54,4.58-.39-2.61,1.03-6.12,1.52-8.91,1.02ZM1134.68,492.55h-.18c-.21,0-.23-.05.07-.07.35-.03,1.3-.12,1.46-.12-.22.05-1.02.15-1.35.19ZM1143.49,509.93c.17-.14.63-.43.77-.5h.12c.08,0,1.03.48.99.58-.07.07-.62.04-.96.06-.42,0-1.13.05-.92-.14ZM1142.41,492.42l-.14-.15c.19.04.23.09.14.15ZM1145.5,510.5l-.12.02c-.25,0-3.65.13-2.07-.36.21-.09,3.28,0,2.19.34ZM1150.22,509.66c-.06,0-.12.01-.19.02.12-.15.24-.3.36-.45l-.17.43ZM1154.78,510.66c-.31-.05-.35-.13.05-.23l-.05.23ZM1156.87,505.25c-.45,1.22-.72,2.67-1.53,3.68-.44.9-5.48,1.56-4.87,0l.05-.12c.68-1.16,2.28-2.54,3.47-3.48.87-.59,1.82-1.5,2.85-1.59.34.05.3.63.02,1.52ZM1158.62,492.21c-.95.4-2.49,2.12-3.5,1.72.02.12.04.23.05.32v-.03c-.02-.08-.04-.19-.05-.29-.12-.05-.23-.12-.33-.23-.53-.79-.8-2.24-.07-2.96.64-.54,2.25-.57,3.63-.71.95-.02,2.95-.46,3.63-.12l.02.04c-.3.64-2.55,1.65-3.36,2.26ZM1172.15,493.65c-2.75.22-5.67-.6-4.42-2.45,2.47-2.4,6.22-2.34,9.61-2.57,6.22-.27,12.73-.71,18.78-.21l.17.02c6.92.99-6.93,2.48-8.13,2.65-6.28.75-10.45,2.02-16.01,2.56ZM1198.43,501.86c-.37.05-.83.14-.9,0-.1-.12.2-.46.43-.76.2-.21.43-.71.67-.71l.06.06c.11.38.6,1.36-.26,1.4ZM1232.63,486.93c.75-.04,1.61-.16,2.24-.14h0c-.13.09-1.75.43-2.41.59-.71.16-1.6.45-1.91.23-.38-.67,1.5-.6,2.08-.68ZM1233.13,506.72s-.05,0-.08,0c0,0,0,0,0,0,.03,0,.05,0,.08.01ZM1213.99,487.43l-.03.02c-1.99.45-1.67-.43.03-.02ZM1207.65,511.63c.05-.05.7-.09.85-.11h.01c-.19.09-.6.25-.86.11ZM1213.49,512.27h-.23c-1.19.08-1.8.08-2.85.02-.67-.11-1.71.02-2.13-.45-.01-.31,1.96-.59,3.54-.74,1.53-.06,3.75-.59,5.13-.24,1.28.9-2.85,1.48-3.46,1.41ZM1220.02,490.18v-.05s.08-.01.12-.02c-.04.02-.08.05-.12.07ZM1222.81,488.88c-.98.36-2.8,1.9-3.26.2-.28-1.45,1.18-1.64,2.26-1.61,1.06.03,2.87-.29,3.75-.05v.04c-.35.44-2.07,1.04-2.75,1.42ZM1229.07,512.64h-.22c-2.08,0-3.42-.76-1.05-2.24,1.56-.97,3.43-1.21,5.24-1.34,2.11-.09,4.42-.68,4.9.63-.14,4.32-5.97,2.99-8.87,2.95ZM1415.55,493.98c1.26-.22,2.89.25,4.27.39.69.14,1.89,0,2.02.85-.38,1.72-4.09,4.24-6.04,5.13-1.83.83-3.84,1.82-4.51,1.49-.83-.39.15-2.9.59-3.87.72-1.56,1.84-3.74,3.52-3.96l.16-.03ZM1381.18,488.83c1.04-1.77,1.81-3.11,3.81-3.41,1.6-.24,3.58-.1,5.14-.03.66.06,1.02.17,1.03.35v.06c-.17.36-.73.61-1.16.87-2.72,1.47-5.6,3.02-8.26,4.49-.54.22-1.46.91-1.91.55-.08-.89.93-2.03,1.35-2.89ZM1379.55,492c-.06.03-.63.36-.81.47h0c.16-.09.59-.34.82-.47ZM1368.53,485.95s-.02,0-.03.01h0s.03-.01.04-.01ZM1365.99,495.85c.43-.18,1.04-.52,1.35-.4l.02.03c-.07.54-.99,1.26-1.44,1.75-2.65,2.64-5.75,5.13-9.61,5.05-.4-.02-.64-.09-.69-.22.03-.56.99-.98,1.47-1.33,2.84-1.7,5.92-3.41,8.9-4.87ZM1348.41,488.24c1.07-2.4,3.74-2.99,6.31-2.72.6.02,2.17.05,2.23.39v.05c-.03.24-.71.62-1.67,1.06-2.43,1.03-4.72,2.26-6.96,3.14-.87,0-.19-1.43.1-1.93ZM1340.48,501.22c.05-.52,13.75-7.33,10.52-4.82l-.13.1c-1.02.79-2.29,1.59-3.35,2.38-2.02,1.56-2.53,2.87-4.64,2.99-.49.03-2.89.17-2.41-.65ZM1333.14,499.34l-.19.13c-3.23,2.35-6.93,3.67-10.88,3.57-5.89-.27,1.1-3.07,4-4.5,3.63-1.73,7.25-3.47,10.7-5.1,8.75-4.08-1.28,4.46-3.63,5.9ZM1290.63,487.09c3.96-1.66,8.57-2.23,12.94-2.65l.21-.02c8.26-.53,16.95-.43,25.34-.17,2.95.26,10.92-.23,9.72,2.04-2.07,2.23-5.68,3.56-8.39,4.94-2.58.94-5.1,2.41-7.03.58-2.34-3.24-3.33-6.53-8.35-4.64-2.85,1.25-5.66,3.13-8.81,3.69-4.06.78-7.31-.47-10.97-.3-1.87-.03-4.03.08-5.81-.2-.6-.1-1.04-.3-1.25-.61-.55-1.12.72-1.83,2.41-2.67ZM1303.82,491.41l-.17.02c-.54.05-1.89.28-2.15-.21,0-.21,1.07-.05,1.38-.06.99.07,2.46.05.95.25ZM1297.42,497.9c-.87.67-2.53,1.54-3.49,2.12-.38.18-.3.03.13-.41.65-.59,1.29-1.44,2.05-1.82l.19-.07c.27-.14,1.47-.22,1.12.19ZM1281.91,498.57c.14-.22.31-.77.66-.82.27-.05.77-.06.81,0,.1.02-1.5,1.03-1.49.91l.03-.08ZM1244.64,494.31c-.09-.13.18-.32.76-.53,2.04-.72,4.59-1.09,6.8-1.47,5.48-.74,9.72-1.96,14.63-1.42-2.2.85-6.94.94-9.66,1.64-3.98.59-8.47,2.47-12.51,1.81l-.02-.03ZM1246.53,502.25c1.28-.94,3.27-.97,4.67-1.33.73-.14,1.4-.26,1.6-.2.2.05.03.24-.4.54-1.64.9-3.43,2.61-5.16,3.08h-.16c-1.05.01-1.47-1.41-.56-2.09ZM1298.33,513.09h-.17c-16.12,1.08-33.01-.43-49.12.6-6.88-.08,6.09-8.11,8.15-9.4,3.44-1.93,8.78-5.24,11.5-4.47,1.4.76.91,2.52,1.13,3.97.34,8.26,5.21,6.02,10.57,3.63,3.14-1.06,6.13.68,9.46.64,2.11.04,4.12-.81,6.2-.6,2.26.24,4.32,2.29,7.69,3.33,1.07.32,2.26.48,3.41.57,7.59.58,16.7.55,24.07,1.19-10.84-.09-22.61-.35-32.89.56ZM1378.39,513.56c-4.96-.17-9.99.21-14.74.14h-.2c-9.45-.17-20.4-.27-29.9-.88-.32-.02-1.69-.14-1.2-.28,1.55-.4,4.88-.5,6.88-.65,4.24-.17,8-.97,11.57-2.02,4.95-1.9,10.23-.85,15.32-1.88,1.81-.34,3.89-.97,5.75-1.51,3.32-.97,6.24-.73,8.82.05,2.57.76,4.72,2.9,6.46,4.83,2.62,3.71-6.07,2.1-8.76,2.21ZM1397.42,510.05c-1.28,1.32-.68,3.19-.3,4.7.45,1.94-6.27.42-7.17-.07-3.04-1.6,5.32-5.98,7.09-7.12l.22-.12c6.08-3.14,2.7.05.16,2.62ZM1402.19,520.38h-.08c-.13-.13-.74-.75-.15-.74.45-.08.32.23.22.74ZM1399.72,494.61c-1.88.55-3.91,1.5-5.75,1.95-.65.14-1.07.11-1.22-.1-.16-.22,0-.66.42-1.25,1.61-2.05,3.95-4.07,5.42-6.3,1.72-2.84,4.5-3.63,8.5-3.44,1.98.11,5.16-.16,6.53,1.07l.05.07c.43.8-.52,1.68-1.19,2.3-3.75,3.21-8.23,4.26-12.75,5.7ZM1413.7,512.77l-.09.08c-.88.84-2.08,1.96-3.21,2.44-1.13.66-2.53,1.8-3.65,2.09-.59.01-2.51.03-2.13-.95.38-.81,3.86-2,5.65-2.8.81-.27,4.71-2.27,3.43-.87ZM1414.71,511.88l-.11-.05c-.21-.18.42-.36.6-.49.21-.12.4-.2.44-.11.09.34-.54.81-.93.65Z" fill="#8b0000"/><path d="M811.49,368.96c-2.15.98-2.65,3.93-2.49,7.58v.19c.14,7.82.46,16.04,1.38,23.44.39,5.16.56,11.22,1.37,15.56.5,5.16-.75,10.52-.66,15.8-.05,6.79-1.06,12.45-.8,19.1.19,5.43-.17,11.07-.74,16.25-.34,3.36-.58,7.09.29,10.29.64,2.43,2.38,3.45,4.09,2.2,1.9-1.48,2.84-4.22,3.4-6.59,1.06-5.19,1.03-10.54.65-15.72-.44-3.29-.87-6.38-.48-9.68.19-2.4,1.1-4.73,1.59-7.13.41-2.58.85-5.44,1.01-7.95.47-5.97.31-12.02.12-17.99,0-2.42.45-4.68.31-7.34-.15-5.29-1.49-10.73-1.92-15.73-.42-3.85-.24-7.99-.49-11.84-.3-2.04.01-4.11.33-6.08.61-4.05-3.51-5.84-6.96-4.35ZM816.29,374.28c.08-.06.5.11.6.07v.03c-.16.15-.44.19-.6-.09Z" fill="#8b0000"/><path d="M733.53,981.69c.39,2.45.13,6.23,2,6.17,6.09-11.7,4.29-26.82,4.91-39.91,1.62-20.84.06-41.79.13-62.41-.54-5.97-1.53-12.43-.09-18.37.95-10.93,1.65-22.79,2.39-33.92.96-33.49.38-67.03,2-100.57-.36-23.48-1.16-47.26-1.15-70.61.82-18.14,1.53-36.51-.8-54.7.72-15.31-5.37-39.87-6.59-6.08.85,18.42.4,37.14-.58,55.49-.06,8.45,0,16.87.07,25.28,0-.04-.02-.08-.02-.11l.02.14c.18,18.66.51,37.27.19,56.08-.9,11.81.8,23.63.83,35.25-3.19,22-.29,45.06-2.24,66.92-.99,34.54-.06,69.23-1.55,103.87v.19c.29,12.26-.55,24.77.47,37.29Z" fill="#8b0000"/><path d="M758.08,712.68l-.08.05c-1.12.54-1.7,1.83-1.33,3.18.58,3.11,4.52,5.3,7.36,3.85,2.02-1.14,3.84-2.93,5.62-4.43,2.82-3.03,5.76-3.6,10.41-4.98,2.63-1.01,4.95-1.85,8.06-2.84,2.56-.95,5.88-1.54,7.24-4.14.9-1.97-.62-4.08-2.53-4.68-1.25-.47-2.89-.3-4.18.14-1.55.47-2.84,1.34-4.2,2.1-3,1.98-6.65.79-9.89,1.85-3.28.99-5.49,2.58-8.81,4.27-2.85,1.51-4.7,4.28-7.66,5.65Z" fill="#8b0000"/><path d="M1449,877.89l-.14-.04c-4.62-1.15-6.56-4.54-8.72-8.21-1.85-2.81-4.29-4.95-6.7-7.24-2.87-3.21-6.63-5.94-10.19-8.43-2.28-1.72-3.81-3.9-6.42-5.13-1.83-.93-6.46-1.05-6.34,1.96-.03,2.11,2.06,4.28,2.26,6.01-.16.66-1.57-.16-2.75-1.53-5.01-6-.51-14.26-.53-21.13.76-6.57-.51-12.55.37-18.97.87-5.03,2.39-10.21,2.76-15.33.55-5.64.77-11.35.79-16.94.83-8.72.19-18.76-.65-27.37-.47-8.56,1.41-18.56-4.13-25.83-4.62-3.75-3.79,7.68-3.8,10.33-.09,9.64.22,18.63.66,28.01.96,13.35.04,25.36-1.19,38.38-.83,14.03-2.46,28.45-3.05,42.43-.21,3.6,1.55,6.09,1.22,8-.16.24-.48.17-1.2-.22-2.24-1.31-5.04-3.02-6.29-5.4-.62-1.09.36-1.94-1.32-2.49-6.95-1.86-14.37-1.97-21.56-2.49-4.83-.09-9.01-1.91-12.81-2.33-7.95-.34-16.22,3.95-24.09,3.2-13.54.58-26.94-.27-40.58.35-8.42.3-14.89,1.09-22.86,1.14-5.03-.16-9.96-1.24-14.96-.9-4.61.91-8.6,1.03-13.26,1.03-6.1.04-12.06,1.41-17.64,1.03-14.26-2.27-29.01-1.69-43.1-3.09-11.94-1.18-23.68-.9-35.93-1.26-4.94-.3-2.61-3.7-5.08-4.48-4.67-.05-9.97,2.99-14.71,3.56-10.21-.53-20.38-.09-30.79-.72-7.23-.32-14.04-.82-21.19-.8-7.33.64-12.9.51-20.31-.01-17.24-.4-34.79-2-52.07-1.23-22.21.85-44.22,1.07-66.39,1.55-8.22-.53-17.45,1.67-25.45.44-6.13-.37-13.39.45-20.13.79-.2,0-.39,0-.51-.02h-.03s.09.02.22.03c-2.37.11-4.67.16-6.83.08-5.85,0-10.37.75-15.73,1.19-4.41.25-6.95-.21-11.53.58-8.51,1.59-16.62,2.82-25.79,3.54-6.17.46-12.44,1.92-18.48,2.73-6.31.92-11.91,1.32-16.55,6.11-5.35,5.72-11.4,11.63-18.36,15.32-1.15.52-.71-.38.9-2.27,2.71-3.04,5.79-5.94,8.47-8.56,5.6-6.97,14.85-10.18,18.16-18.82,2.48-7.79,2.41-15.7,2.9-23.83.29-3.84.42-7.65.33-11.49-.14-3.97.12-7.14.46-11.36.61-11.1-1.52-22.19-2.12-32.87-.63-8.36-.26-16.08-1.91-24.19-1.44-4.77-2.22-10.85-5.55-14.74-2.38-1.49-2.74,1.8-2.81,5.25,2.69,26.43,3.6,53.52,4.81,79.91-1.19,7.89-1.43,17.76-2,25.49-.6,7.04-3.08-.08-4.75,7.25-1.57,5.5-6.21,10.17-11.22,13-9.48,5.72-17.18,15.12-26.18,21.92-5.28,4.55-11.14,10.97,1.99,7.41,4.87-.22-3.3,4.61-4.54,5.31-3.02,1.6-1.05,4.05-1.94,6.49-.31,1.52-.93,2.26.02,1.58,7.37-5.97,17.36-4.43,26.21-4.23,14.23.21,27.42.11,41.44-.98,12.66.93,26.39-.61,39.35.23,11.16.45,23.78-.27,35.51.05,5.37.67,9.22,2.44,14.13,1.61,17.88-4.65,37.58-2.57,56.01-3.41,22.77-.61,45.81-1.77,68.6-1.43,11.82.1,23.22-1.44,34.79-1.71,13.24-1.68,26.14.16,39.45.29,27.41-.39,54.77-2.75,82.07-1.44,5.43.41,10.77-.26,16.07-.64,7.58-.05,15.39.2,23.06-.26,3.24-.09,6.55-.47,9.78-.21,4.35.46,7.86,2.22,11.49,2.38,4.53.3,8.69-1.92,13.51-2.36,11.99-.99,24.42-.95,36.24-1.8,32.9-1.79,65.67.24,99.13-1.66,11.39-.14,19.65-.43,31.8-.87,6.63-.57,13.11,1.5,18.09,4.86,4.31,1.93,5-3.56,5.98-6.32.3-2.78-3.78-2.77-5.88-3.76ZM798.92,845.17s0,0,0,0c0,0,0,0,0,0,0,0,0,0,0,0ZM798.78,844.62v-.02c0-.18.14.5.06.63-.17-.54-.09-.67-.06-.61ZM767.03,880.37c.93-.74,1.75-1.49,2.73-2.11.47-.3.75-.35.68-.11-.14.46-1.26,1.64-1.74,2.21-.87.91-2.09,2.56-3.34,2.49l-.14-.02c-1.58-.67,1.22-1.92,1.81-2.46ZM773.55,887.34c-.05,1.81-3.23,1.46-4.56,1.73-2.61.13-5.14.8-5.82-.06l-.03-.07c.14-1.88,3.93-3.17,5.69-3.93,1.7-.61,3.42-1.7,4.98-2.55.07-.03.12-.06.16-.07.3-.1-1.05.74-1.08,2.13-.05.96.57,1.92.66,2.83ZM794.79,888.03c-2.1.05-4.06.1-5.92.04-.3-.03-.75-.06-.86-.29v-.07c.3-.76,1.51-1.26,2.18-1.79,1.31-.84,2.39-1.82,3.47-1.38,1.03.5,2.63,1.87,2.87,2.95-.2.61-1.18.46-1.76.54ZM790.71,878.47v-.02c2.55-2.81,5.91-5.4,8.81-7.84.47-.34,1.15-.99,1.58-1.11-2.73,3.44-6.5,6.8-10.39,8.96ZM804.89,856.35s.06-.09.09-.14l.05.05s-.09.06-.13.09ZM817.07,860.87c-1.04.83-1.89.26-2.9-.95-.92-1.18-2.41-2.8-1.59-3.2.98-.41,2.21-.18,3.28-.24,1.02.08,2.88-.29,3.42.42l.04.09c.01,1.21-1.33,2.99-2.25,3.88ZM1095.4,852.66c.42-.82,2.22-.77,3.17-.67.47.02.82.06.9.19l.02.07c-.21.48-1.12,1.02-1.61.86-.45-.11-.82-.52-1.28-.59-.34-.06-.75.17-.99.26-.2.08-.28.02-.2-.13ZM962.18,850.46c.58-.85,4.29-.48,6.48-.54h.23c3.22.13,6.67-.05,9.86.14,4.64.45-1.27,3.89-2.52,5-2.58,2.27-6.07,4-8.87,1.9-1.32-1.06-6.24-4.86-5.18-6.49ZM828.38,885.8c-.41.07-.95.14-.75-.12.59-.54,2.09-1.59,2.8-2.02l.02.02c-.49.65-1.26,1.9-2.07,2.12ZM832.29,864.52s-.05-.06-.08-.09c0,0,0,0,0,0,.03.03.05.06.08.09h0ZM833.01,863.36l-.12.15c-.07.14-.59.58-.85.7,0,0,.01.01.02.02,0,0,0,0,0,0,0,0-.01-.01-.02-.02,0,0,0,0,0,0,0,0,.01.01.02.02h0s0-.01-.02-.02c-.13.06-.19.03-.11-.13-.05-.05-.04-.04,0,0,0,0,0,0,0,0-.02-.02-.03-.03-.04-.05t0,0s.03.03.04.05c.02-.06.05-.12.11-.21.39-.37,2.03-2.07.98-.51ZM844.98,885.12c-.55-.02-1.39.08-1.57-.04l-.03-.06c0-.18.67-.74,1.01-1.04.33-.28.68-.12,1.21.32.21.17.73.52.82.7.09.22-.82.09-1.44.12ZM874.86,872.55c-2.79,10.5-6.96,13.84-17.95,14.02h-.22c-1.09.13-6.41.03-4.83-1.68.81-.76,4.46-1.76,6.63-2.65,4.76-1.83,12.45-9.09,15.96-10.38.49-.14.48.29.42.69ZM885,886.09c-.36.03-4.89.47-3.88-.36l.11-.06c.51-.28,1.31-.3.77-.53-.24-.08-.35-.25.06-.6.35-.32.7-.76,1.22-.93,1.22-.58,4.32,2.25,1.71,2.48ZM880.59,859.41c-2.23,1.51-5.22,5.18-7.58,2.05-1.26-1.76-2.48-2.64-3.7-2.97.77.62,1.55,1.28,2.14,1.88.43.62.14.45-.4-.25-.48-.53-1.14-1.11-1.81-1.65-2.72-.67-5.49,1.38-8.9,2.78-1.9.68-3.97-.02-5.93-.59-4.16-1.37-7.69,1.26-10.82,4.11,1.2-.92,2.17-1.62,2.37-1.71-1.5,1.74-4.06,3.52-5.97,5.19l-.2.16c-.77.62-2.59,2.14-3.19,2.29-.49.16,1.04-1.17,1.34-1.4.36-.33,1-.86,1.77-1.49-.32.07-.48-.11-.28-.76.28-.78,1.02-2.47.72-3.63-.4-1.78-2.02-3.22-3.78-3.6-1.33-.3-2.53.75-4.04,1.37-.64.29-1.33.56-1.94.86-.48.24-.82.45-1.21.68-.74.48-1.09.09-1.68-.31-1.69-.88-4.31-2.61-6.17-3.91-2.44-2.4,4.18-2.41,5.58-2.63,6.09-.37,11.77-.96,17.07-1.54l.2-.02c11.6-1.21,23.09-2.64,35.05-3.12,2.74.07,6.69-.67,8.84.72.96,1.84-4.71,5.08-7.47,7.49ZM838.38,867.67l.13-.15c1.76-1.85-.58,1.9-1.09,2.07-.9.67.84-1.73.96-1.92ZM900.43,860.31l-.03.02c.31-.22,1.65-1.09,2.27-1.49-.52.34-1.98,1.3-2.23,1.47ZM902.87,868.54h-.03c.04-.18,1.6-1.23,1.68-1.25-.24.2-1.49,1.15-1.66,1.25ZM925.58,866.82c-1.09.86-3.28,2.38-4.59,3.1-.14.07-.23.1-.12-.03.47-.54,7.42-5.81,8.34-6.31h0c-1.79,1.64-4.52,3.36-6.43,4.87-.11.17,2.42-1.62,2.8-1.63ZM916.07,857.59c-1.38,1.16-2.72,2.9-4.54,3.16-.68.1-1.34-.05-2-.41-1.43-.77-2.85-2.35-4.44-2.67-.93-.19-1.93-.02-2.88.14-2.61.62-5.26.77-7.96,1.05-1.53.18-3.14.67-4.55,1.13-.41.09-.67.03-.77-.3-.09-2.29,1.99-5.08,3.84-6.51,2.79-2.15,6.64-1.73,10.74-1.88,4.66-.12,9.38-.34,14.04-.49h.23c10.43-.35,21.51-.49,31.62-1.13,2.61.11,10.28-1.57,10.92,1.54.04.97-1.51,1.69-3.51,2.53-2.31.96-4.36,1.76-6.65,3.71-2,1.76-4.28,4-7.12,3.61-3.43-.65-6.62-1.46-9.83-2.43-6.88-3.7-9.52-8.05-17.18-1.06ZM1007.66,871.09l-.02.04c-.13.12-.31.28-.51.44-.61,1.8-1.13,4.13-1.69,5.88-.54,1.83-1.18,3.74-3.02,4.54-4.64,1.55-12.18.69-17.48,1.47l-.22.02c-6.06.66-13.32.95-19.75.89-7.19.49-12.94,1.06-20.08.59-2.13-.03-7.26-.06-3.82-3.1,2.27-2.05,5.12-4.4,8.21-4.78,3.05-.86,5.92.35,8.9.63,1.38.08,2.72-.37,4.05-.68,2.77-.66,5.69-.04,8.53.93,6.28,1.92,5.45.95,9.94-2.6,2.97-1.43,7.39-.95,10.76-.33,4.62.58,9.75-3.45,13.65-5.86,2.08-1.08,3.26-.81,2.29,1.67-.07.18-.14.37-.2.56.2-.16.38-.28.47-.32ZM1007.4,853.14c-2.99,2.52-6.37.36-9.44.31-2.12-.06-5.4,2.36-6.23-.84-.35-3.24,3.66-2.79,7.23-3.03h.22c2.82-.05,7.76-.48,10.04.16,1.86.73-.97,2.73-1.81,3.4ZM1010.81,850.26c2.78-1.01,5.99-.45,8.98-.54h.25c1.6.2,26.97-.86,19.21,2.97-4.33,1.8-9.05,2.83-13.79,4.35-2.29.61-5.02,1.94-7.25.97-2.4-1.37-3.67-4.18-5.96-5.75-1.53-1.2-2.53-1.46-1.42-2ZM1032.94,875.86c-2.69,5.16-1.7,7.9-8.69,7.24h-.19c-2.41-.06-5.38-.02-7.93.07-1.45.03-2.92.07-4.17-.24-.52-.15-.94-.33-1.04-.81-.28-1.34,4.06-4.34,7.32-7.53,1.93-1.81,4.14-4.36,6.96-4.06,6.24,1.54,6.16,3.31,11.99-.27.08-.03.13-.02.13.02-1.08,1.91-3.35,3.52-4.38,5.58ZM1042.96,882.26c-1.31-.08-3.95.21-4.6-.44v-.06c-.02-.59,3.56-2.64,5.04-3.47,1.36-.74,2.58.35,3.38,1.43.38.53.83,1.09.83,1.72-.33,1.2-3.49.65-4.66.81ZM1055.92,881.75l.24-.07.05.06c-.09,0-.19,0-.29,0ZM1057.02,876.42c-3.43,2.5,1.15,5.37-3.92,5.83-1.65.02-4.12.57-5.47-.28l-.02-.06c.4-1.13,3.56-2.31,4.79-3.15,1.87-1.03,4.35-2.45,4.69-2.51.14-.02,0,.09-.08.18ZM1079.27,879.94c-4.08,3.3-10.57.94-15.11,2.37l-.11.04c-.54.16-.79.31-1.24.37-.05,0-.07-.04-.05-.09,1.02-1.88,3.83-3.8,5.69-5.45,1.61-1.49,3.44-2.98,5.39-3.07-.1-.11-.18-.22-.26-.31v.02c.09.09.18.19.27.29.98-.05,1.99.26,3.02,1.1,1.55,1.37,3.59,3.2,2.4,4.73ZM1074.42,857.92c-2.45.84-4.72-.02-7.06-.64-.91-.23-1.83-.4-2.77-.38-2.46-.04-5.01,2.1-7.41,1.99-2.89.01-5.81-2.46-6.32-5.25-.34-3.59,5.69-3.89,8.54-4.1h.17c3.66-.31,6.87-.03,10.77-.1,4.91.15,8.81-.95,13.2-.11,3.58,1.14-7.58,8.22-9.12,8.59ZM1108.28,880.07c-.35.59-1.33.81-2.03,1-2.33.62-6.33.16-9.56.21-3.21-.07-7.65.45-10.12.07l-.1-.02c-2.84-.9,4.13-4.8,5.08-5.67,2.12-1.34,5.65-4.65,7.09-3.4.96.64,1.48,1.66,2.2,2.61.98,1.46,2.42,2.53,4.01,3.29,1.09.58,2.28.98,3.16,1.46.23.15.33.29.27.45ZM1113.04,881.15h-.21c-.18-.01-1.28.06-.8-.22.41-.2.9-.41,1.34-.33.51.1,1.27.22,1.35.31-.28.24-1.23.18-1.68.24ZM1116.24,879.99c-.67.02-1.73.21-2.33.23l.03-.02c.48-.08,3.1-1.5,3.06-.43-.2.22-.43.2-.75.22ZM1136.51,852.63c.5-.14,2.11-.08,2.59-.02.15.05-.03.17-.39.32-.55.19-1.25.64-1.78.67l-.14-.05c-.32-.17-.58-.8-.28-.93ZM1137.92,879.96c-.95.21-1.91.22-2.13.29-.48.1.62.26.2.38l-.07.02c-1.24.17-3.88.22-5.19-.04-1.11-.21-.03-.93,1.46-1.91,1.95-1,4.43-2.95,6.23-2.07,1.67.75,1.42,3.04-.5,3.32ZM1143.98,879.31c.07-.03.14-.07.2-.1l.03.08c-.08,0-.16.01-.24.02ZM1168.21,878.87c-.37,1.03-2.61.8-4.76,1.06-2.44.16-6.95.86-8.96.64v-.03c2.51-1.61,5.9-2.53,8.73-3.83,1.23-.52,2.69-.85,3.87-.08.76.46,1.48,1.35,1.12,2.24ZM1160.72,857.47c-3.38,1.41-7.62,3.4-11.09,2-1.05-.84-1.37-2.55-1.22-4.01.68-4.85,7.06-2.75,10.47-3,1.94.08,3.94.17,5.8.28,2.15.13,3.65.38,3.71.86v.05c-.86,1.53-5.64,2.78-7.67,3.82ZM1216.28,880.06v-.02c.16-.04.64-.37.7-.14.09.23-.55.13-.7.16ZM1222.86,879.6c-.26,0-.4,0-.23-.06.22-.08.48-.17.7-.24l.07.03c.21.36-.34.27-.55.28ZM1220,859.59c-3.12,1.5-6.24,3.44-8.84,3.2-4.76-.57-7.96-4.24-13.01-1.52-3.88,1.94-7.38,1.57-11.05.9-3.02-.85-6.26-2.05-9.13-3.48-2.59-1.7-5.84-4.16-.57-5.38l.16-.03c4.59-.57,9.26.34,13.95.46,11.05.89,22.31-.7,33.37.72,4.59,1.14-3.61,4.34-4.88,5.13ZM1232.26,875.84h0c.19-.09,1.39-.57,1.59-.62-.12.14-1.34.65-1.59.62ZM1237,855.81c-.81.28-1.93.97-2.72.98l-.15-.04c-.42-.16-.85-1.1-.45-1.32.81-.22,2.98-.13,3.79-.02.14.07-.07.21-.48.39ZM1260.29,854.99c-5.41,2.95-12.52,5.28-18.29,7.71l-.2.08c-8.8,3.28,10.02-4.94,11.46-5.68,2.37-1.06,7.48-3,7.03-2.11ZM1272.97,859.81c-.43-.87-.03-2.29,1-3.32,1.83-2.1,4.53-2.86,7.84-2.75h.23c7.76.28,19.8.22,26.77,1.08,1.01.36-.23.79-1.15,1.13-7.64,2.24-15.64,4.55-22.92,7.36-2.03.77-4.32,1.35-6.37.63-2.21-.75-4.79-2.22-5.4-4.14ZM1284.5,878.48h-.04s.02,0,.04-.01h0ZM1276.62,878.53l-.06-.06c-.17-.2.08-.45.62-.75.54-.3,1.37-.64,2.16-.98,1.71-.77,3.52-1.28,4.48.23.19.42,0,.98-.09,1.36-.04.21-.05.32.05.37.38.1,1.16.1,1.6.19,1.66.55-7.76.41-8.75-.36ZM1315.14,868.06c-.4.71-.97,1.41-1.47,2.2-1.82,2.29-1.66,5.99-4,7.63l-.13.08c-1.6,1.02-5.45,1.12-8.21,1.18-4.91.11-9.3.25-13.99-.09-3.3-.33-1.47-1.68.59-2.54,5.48-2.33,11.16-4.33,16.72-6.49,2.96-1.1,8.71-3.57,10.52-2.74.26.21.13.46-.03.77ZM1326.43,876.25c-.22.1-1.35.59-1.54.68.06-.03,1.51-.66,1.59-.7l-.04.02ZM1405.6,861.19s.06.06.1.08c-.04,0-.07,0-.1,0,0-.03,0-.05,0-.08ZM1381.06,876.39c-4.34.36-10.65-.08-14.81.07h-.09c-3.84-.11,12.6-4.04,13.24-3.82,3.26-.54,6.45,2.73,1.66,3.75ZM1374.89,856.13c-4.5,1.06-11.05,4.46-15.8,6.04-.58.21-.55.18,0-.06,1.48-.64,3.55-1.38,5.03-2.3,3.71-2.37,3.81-6.32,7.62-7.53,4.08-1.08,8.78-1.13,12.92-1.55h.2c2.77-.11,5.3,1.3,6.75,3.48.37.58.77,1.1.58,1.64-.21.29-.62.24-1.01.26-1.88-.09-4.4.1-6.94.26-3.16.33-6.22-.63-9.33-.25ZM1385.8,864.1c1.03-.7,3.11-1.77,4.65-2.08,3.22-.52,6.19,2.36,8.6,4.1,1.64,1.26,1.65,3.44-.38,3.62h-.14c-1.18.02-2.36-.81-4.06-1.62-1.69-.85-4.05-1.3-5.97-1.82-.97-.33-4.29-.86-2.71-2.21ZM1389.65,872.42l-.09-.02c-.12-.05.28-.29.18-.31-.1-.01-.43-.18-.2-.27.18-.12,1.02.14,1.01.26.06.13-.69.35-.9.34ZM1394.61,870.21c-2.23-.23-4.91-1-6.92-2.1l-.08-.05c-.26-.21.32-.06.52-.01,2.22.66,4.85,1.24,7.1,2.11.1.16-.46.06-.63.06ZM1427.93,876.54c-4.54-.3-9.52-.45-14.24-.37-3.87.04-7.45.23-10.81.45-1.3.03-3.24.26-4.24-.26l-.05-.04c-.78-1.36,4.26-3.68,5.48-4.08,4.35-2.03,11.6,1.7,13.33-4.2.54-1.94.17-4.53-.1-6.36-.12-.92.03-1.49.5-1.59.89-.12,1.96.96,2.8,1.59,1.75,1.43,3.53,2.73,5.41,3.91,3,2.11,6.01,6.03,8.31,9.09,1.84,3.02-4.76,1.77-6.39,1.85Z" fill="#8b0000"/><path d="M1419.17,894.51l-.03-.16c-1-3.37-3.39-7.18-6.53-7.06-5.64,3.27-2.23,14.65-2.72,20.65-.46,25.52.1,50.89,1.48,76.06-1.41,17.48-1.02,34.82-1.82,52.41-1.05,11.84,6.03,33.28-13.87,27.54-29.26-1.84-58.48-.44-87.8-.41-20.49,2.08-40.99.48-61.39,3.1-11.21.37-24.47-1.49-35.55-.93-57.34-2.04-115.01,1.58-172.49.8-55.34,1.93-110.85,3.76-166.06,4.29-12.96.67-26.45,2.69-39.64,2.76-8.91.63-20,5.24-18.48-8.16-1.33-16.36-2.93-32.03,0-48.22,1.43-26.59-.09-54.12-4.12-80.19-.3-3.42-.53-6.83-.86-10.22.07-.06.12-.2.12-.48l-.13.37c-.38-4-.89-7.97-1.81-11.9-.86-3.72-6.35-22.11-8.62-11.55.35,9.77,2.89,19.98,2.99,29.8,2.2,18.57,4.25,36.97,5.44,55.42-.49,1.26.14,17.74-1.49,13.33-2.37-12.8-16.58-11.19-27.35-11.18l.03-.05-.03.05c-1.39,0-2.73-.02-3.97-.11-15.3-1.11-31.41-1.2-46.88-.64-12.43.35-24.47-1.47-36.72-.63-3.93.13-25.71,2.44-16.6,6.51,7.72,1.77,16.95.14,25.22.96,23.97,2.17,49.07.37,72.72,1.63-5.43,2.45-14.55,2.9-20.61,4.77-13.66,3.44-26.07,8.91-39.94,11.03-20,2.74-39.6,7.71-58.97,13.15l.16-.38-.16.38c-1.54.43-3.07.87-4.61,1.3-13.55,3.48-27.88,6.42-41.07,11.57-16.01,5.58-32.45,9.19-48.55,14.42-30.78,11.46-29.14,19.07,3.37,6.69,31.2-7.96,61.9-17.41,92.39-27.1,32.44-6.38,64.09-15.66,96.49-23.27,60.91-12.06,48.52-27.05,48.15,63.13,1.25,35.11-1.54,21.1-33.36,35.32-14.2,5.08-27.48,12.36-41.04,18.45-11.87,3.93-24.72,7.45-36.24,12.58-18.68,6.93-36.36,15.96-55.12,22.79-16.09,7.24-32.34,16.5-48.48,23.15-7.66,2.9-15.37,6.72-22.7,10.38-5.36,2.38-10.39,8.41-16.69,7.77-4.65-2.58-1.99-10.54-2.77-15.08-.35-9.15-2.76-17.79-.72-26.88,1.23-17.76.69-35.93-1.4-53.6-1.75-7.57,2.85-22.87-6.3-26.12-3.2,1.8-1.83,9.25-1.93,12.88.11,12.63,1.14,25.17,2.3,37.53.93,12.77-.4,26.03.3,38.83-.07,9.36,2.22,20.1-.84,28.61-7.35,5.8-19.4.95-27.85-.49-13.36-2.03-27-1.35-40.41-2.14-1.98.05-4.11.37-5.87,1.26-14.63,10.01,31.74,6.44,35.36,7.4,11.61,1.39,23.32,2.83,35.14,3.62,6.59,1.16,12.35,3.24,18.88.66,52.35-23.22,103.7-49.06,157.13-69.37,20.7-7.7,40.7-18.15,61.78-24.94,27.08-11.88,39.18-9.76,38.55-43.41.55-1.53.95,1.58,1.49,4.35,4.37,20.72,5.41,1.02,16.24,1.78,137.8-1.54,275.93-6.64,413.56-7,41.15-1.16,82.32-1.26,123.29-1.94,11.73-.08,22.4-.32,35.02-.95,4.08-.05,9.03-.58,11.45,3.19,1.53,2.47,1.2,6.28,1.32,10.24-.71,11.21,4.44,15.64,6.56,1.7,1.65-14,1.22-28.41.19-42.43-.62-6.64.89-13.23,1.58-19.84.97-10.17,1.02-20.15,1.2-30.29.23-18.08.48-36.81-.9-54.9-.44-10.19.32-19.73-.29-29.72.42-4.13,2.67-8.38,1.87-12.89ZM778.21,998.33c-.57.24-.65-.32-.86-.57l.03-.02c.17.04,1.37.39.83.59ZM779.5,998.03v-.06c.07,0,.13.02.19.03-.06.01-.13.02-.19.03ZM807.51,1014.75s0,0,.01,0c-.01.2-.03.4-.04.6-.02-.15-.02-.34.03-.6ZM806.99,1021c.1,0,.25.54.31.72l-.02.13c-.53,1.09-.48-.71-.29-.86ZM805.87,1038.31c-.87-.93-1.23-2.93-1.11-4.11l.03-.13c.12-.51.6-.91.83-1.23.58-.74.74-1.93.86-2.92.25-2.09.35-.49.38.33.11,2.17-.16,4.45-.41,6.57-.13,1.01-.3,1.63-.58,1.49ZM806.37,1043.19l.04-.02c.01.18.21,1.43.07,1.61-.58.02-.24-1.32-.11-1.59ZM807.12,1058.29l-.03.02c-.48-.47-.4-1.81-.54-2.54-.09-2.65-.7-6.72,0-9.55.45.44.44,1.8.59,2.51.3,3.01.69,6.54-.03,9.56ZM1413.7,903.76l-.06.07c-1.06.5-.99-5.84-.08-5.16.84,1.38.82,3.73.15,5.09Z" fill="#8b0000"/><path d="M479.83,1065.33c-2.92.98-6.33,2.11-9.16,2.54-4.3.63-9.05,1.33-11.69,5.19l-.08.11c-3.82,6.42,5.62,5,9.31,4.09,7.77-1.51,15.05-3.1,22.35-5.09,6.97-1.18,14.32-.23,21.33-.88,6.26-.83,12.87.16,18.88-1.03,4.64-1.62,2.5-5.53-.93-6.75-2.08-.89-4.37-.88-6.61-.75-3.24-.07-6.93,1.3-9.81,1.45-4.1.11-8.14-1.54-12.25-1.41-3.48-.02-7.16.41-10.46.91-3.56.32-7.34.41-10.89,1.63Z" fill="#8b0000"/><path d="M462.99,24.79c-.83-1.19-2.31-2.31-3.09-3.38-.72-.9-1.07-1.88-2.02-2.55-1.86-1.15-5.41-.8-6.87,1.12-1.97,2.99,2.61,7.57,4.45,9.52,1.16,1.13,1.66,2.38,1.94,4.42.84,4.04,1.85,12.37,7.76,10.68,1.56-.54,2.68-2.07,2.38-3.7l-.02-.09c-.14-.62-.48-1.15-.8-1.7-.38-.67-.87-1.42-1.06-2.17-.35-1.5.34-3.09.36-4.6-.01-1.61-.71-3.03-1.42-4.45-.31-.96-.98-2.2-1.62-3.1Z" fill="#8b0000"/><path d="M443.32,15.22c-1.29-3.65-5.06-3.25-8.16-3.41-2.35-.24-4.13-2.24-6.23-3.09-1.98-.79-3.99-.88-6.1-.9-1.38-.16-3.18-.29-4.67-.04-1.61.24-3.12.93-4.67,1.3-1.83.51-3.72.25-5.36,1.2-1.78,1.16-2.94,3.9-2.32,6.06,1.57,3.77,6.89,1.86,9.89,1.51,2.07-.24,3.94-.92,5.9-1.28,2.56-.31,4.36.56,7.24,1.37,2.51.52,4.71,1.08,7.51,1.78,3.62,1.07,8.13.46,7.02-4.37l-.04-.12Z" fill="#8b0000"/><path d="M703.85,49.91c-.88,1.68-.51,4.58-.3,6.62.61,5.56,1.66,11.32,3.05,16.09,1.08,4.74.26,9.51,1.13,14.88,2.79,14.39-7.94,6.37-15.73,4.88-6.57-1.65-12.65-2.35-18.88-4.21-3.62-1.06-7.66-1.09-11.4-2.19-4.39-1.18-8.33-3.38-12.69-4.73-5.28-1.96-10.3-3.95-15.89-5.23-6.94-2.01-13.4-3.95-20.41-5.57-3.93-.88-7.8-2.41-11.74-3.14-2.56-.48-5.21-.8-7.7-1.49-8.05-2.4-15.97-5.2-24.44-6.39-11.22-1.68-22.35-4.11-33.26-6.4-5.12-1.52-9.73-2.74-14.95-3.65-3.95-.73-7.78-1.84-11.72-2-5.4.02-12.54-1.6-17.98-.3-5.88,2.33,5.09,5.28,7.71,5.78,5.1,1.12,11.45,1.7,16.82,3.05,8.14,2.11,15.22,4.5,23.33,5.99,2.83.55,5.6,1.1,8.35,1.64-.03,0-.07,0-.1.01h.12c10.59,2.09,20.72,4.2,31.42,6.75,4.2,1.16,9.02,2.25,13.18,2.83,2.83.4,5.32.55,7.7,1.21,4.44,1.27,8.78,3.42,13.36,4.59,5.75,1.5,11.83,2.44,17.33,4.07,4.81,1.39,9.19,2.92,13.9,4.3,8.47,2.12,17.6,5.14,26.53,7.04,6.6,1.21,13.05,2.8,19.29,5.3,6.81,2.63,13.94,4.09,20.77,6.04,2.64.69,19.84,5.78,15.4.23-1.99-2.16-5.24-3.91-7.29-6.21-2.4-2.53-3.18-5.46-4.13-8.49-1.07-3.49.46-6.98.38-10.5,0-2.76-.35-5.45-.72-8.04-.21-2.91-.56-5.98-1.45-8.86-1.04-2.89-1.32-6.35-1.62-9.04-.32-2.14-1.42-4.21-3.34-5.39-1.31-.85-3.17-1.29-3.96.42l-.05.1Z" fill="#8b0000"/><path d="M450.78-50.01l.2.08c8.73,3.56,17.39,6.32,26,9.61,9.82,4.09,19.68,7.25,29.71,11.18,4.44,1.77,8.87,3.83,13.37,5.45,5.96,2.12,11.42,3.37,17.07,5.36,3.16,1.18,5.98,2.98,9.1,4.55,9.91,5.18,21.42,7.97,31.47,12.27,10.37,4.68,20.5,9.01,31.14,12.89,5.11,1.99,10.08,4.35,15.92,6.39,5.92,2.15,11.97,3.8,17.85,6,6.57,2.41,13.24,6.16,19.96,8.87,7.42,2.78,15.54,5.58,22.74,8.44,3.39,1.11,19.85,7.56,18.66,3.93-6.68-8.08-18.57-11.22-28.1-15.2-6.39-2.62-12.15-5.47-18.56-7.87-7.14-2.67-13.86-4.08-20.76-6.94-5.41-2.2-8.95-3.44-14.7-4.82-3.47-.92-6.43-2.18-9.49-4.06-4.22-2.4-8.89-4.16-13.2-6.27-5.47-2.66-10.02-5.05-16.02-7.27-3.92-1.37-7.85-2.79-11.47-4.66-5.13-2.43-10.55-4.12-15.89-6.27-5.32-1.86-10.59-4.64-15.89-6.58-2.43-.91-4.9-1.39-7.27-2.24-9.16-3.66-17.38-7.96-26.84-11.54-7.13-2.66-14.81-4.6-21.91-7.46-4.93-1.93-9.84-3.51-14.63-5.23-3.04-1.25-5.71-2.43-8.97-3.54-2.95-1.12-6.02-1.99-8.47-3.26-2.26-1.47-3.48-1.91-6.92-3.15-1.33-.49-2.65-1-3.97-1.52-.12-.07-.24-.13-.29-.17h-.02s.06.04.13.1c-3.5-1.37-6.98-2.78-10.5-4.01-3.67-1.24-5.93-2.6-9.59-3.36-6.02-1.04-11.62-3.34-17.7-4.93-3.92-1.16-13.9-2.12-6.08,2.87,5.84,3.6,14.53,6.6,21.7,8.87,11.37,3.56,21.17,9.25,32.22,13.46Z" fill="#8b0000"/><path d="M379.06-42.06v.13c-2.5,44.15-1.44,84.68-2.79,128.52-4.25,85.53-4.74,160.84-6.92,244.86-.99,38.29-1.34,76.38-2.26,114.4-.53,27.16-2.73,55.32-1.42,82.63-.03,12.05-.87,27.18-.17,38.85-4.32,70.76-3.24,148.23-5.25,216.65-1.29,12.78-.34,26.1-.76,38.86-1.46,33.99-.23,68.53-1.54,102.86-.62,34.3-.09,71.35.39,105.78.3,47.89-2.45,99.19-.56,147.08.18,42.58.19,84.75,2.12,127.14.46,8.92,1.01,14.54,1.64,13.9,1.77-6.29,1.73-18.78,2.33-26.22.55-13.04,1.28-26.95,1.49-40.02-.44-48.39-.99-93.13-.08-141.01.41-41.01-1.99-79.02-.81-119.55.09-4.15.19-8.36.11-12.33-.05-1.53-.27.88-.31-1.1.04-7.09.5-15.04.37-22.34.05-14.01-2.09-25.94-1.49-39.38.86-4.77,1.44-7.6,1.49-12.9,1.06-38.08,1.45-76.9,3.41-114.92-.02-20.92.65-46.57.41-68.62.16-1.98-.1-7.49.67-8.68.73,1.37.66-2.19.76-2.85.39-9.56-.09-19.36-.34-28.8.62-13.16,1.75-29.5.7-42.2.6-17.35,1.52-36.26,1.65-53.92,1.37-11.79.19-24.75.73-36.52-.34-4.66-1.08-9.35-.42-13.97.47-4.59,1.12-6.38.86-11.32.33-31.42,2.08-62.81,3.02-94.18.97-28.29-.21-54.1,1.13-82.17.41-6.93-.41-13.31-.23-20.05.69-9.93,1.11-19.54,1.2-29.53.59-10.26-.27-20.96-.02-31.27.67-6.72.85-12.83.7-19.5.23-9.26,1.04-18.82,1.06-28.21.23-14.17-.16-25.94.27-38.88.12-1.41.22-.95.39-.61.07.1.09.04.13-.09.13-.41.17-3.83.3-4.69.08-.39.15,2.73.25,2.48.09-.4.08-.89.12-1.42.5-16.67.48-34.99.75-51.84.67-9.5,1.46-18.22,1.26-28.1-.34-10.25-.08-19.68.24-29.97.04-1.81.24-.44.36-1.24.39-5.29.33-10.18.49-15.94-1.22-22.73-1.13-44.98,0-67.79.03-17.44-.1-37.39-1.59-54.66-1.62-13.45-3.55,25.91-3.9,32.65Z" fill="#8b0000"/><path d="M306.65,6.35c.49-21.56.69-44.09-.94-65.52-1.9-26.88-3.62,3.12-4.06,14.88-2.1,40.38-.74,77.88-1.22,118.06-2.24,68.16-3.23,127.05-3.24,193.58-.94,45.98-.86,91.07-1.53,137.06-.15,20.42-1.26,40.24-1.17,60.91.6,16.78.28,33.1.52,49.77.28,7.47.01,14.61-.18,22.38-4.74,58.08-1.25,121.58-3.86,177.34-1.8,69.16-2.99,138.66-2.79,208.22-.32,92.74-4.12,174.6-1.32,271.31.1,2.1.21,3.93.34,5.45.19,2.37.42,3.95.67,4.51.43.97.97-1.07,1.61-6.96.69-6.42,1.17-12.9,1.61-19.33,2.71-30.14,1.87-60.89,2.21-90.47.02-37.06,1.98-76.82,1.43-113.37-.99-31.77-.24-63.97.3-95.86.51-13.8-1.8-26.54-1.35-39.81,3.06-18.69,1.98-38.8,2.8-57.84.65-29.98,2.72-58.15,2.43-88.41.71-13.24-.3-26.93.39-40.09.18-2.88.75-.11,1.02-3.03.64-9.2-.26-19.41-.31-28.35,1.03-13.52.94-29.58.51-42.72.84-13.72,1.05-30.08,1.25-44.21,1.07-13.72.55-28.17-.32-41.86,1.29-11.61.79-23.8,1.21-35.67,1.18-32.85,1.98-66.53,2.05-99.2.21-8.84-.73-17.08-.47-26.05.31-9.97.83-19.62.05-29.31.3-14.95,1.28-30.52.74-45.65-.61-7.57-.33-15.08.21-22.59-.08-6.52-.2-12.71.21-19.32.78-15.79.01-32.54.03-47.73,0-.73.02-1.37.05-2.04.1-1.89.18-1.59.42-1.59.34-.83.18-2.79.36-3.92.08-.43.21,2.24.31,1.47.51-10.73-.09-21.67.19-33.04-.14-3.55-.13-7.05-.05-10.54v.02c.21-.42.27-2.75.28-3.24-.09.7-.24,2.57-.28,3.2.24-9.85,1.08-19.54.87-29.58-.23-9.59-.82-20.35.12-29.08v-.02c.47-7.91.6-16.34-.38-24.29-.71-8.52-.18-18.43-.72-27.51Z" fill="#8b0000"/><path d="M1545.23,486.09v-.18c-.53-8.46-.23-16.88-1.32-25.07-.12-5.53,1.12-8.1.71-13.82-.47-36.81,1.07-74.11-.2-110.74-.35-14.51-1.55-29.23-1.09-43.76-.07-5.15-.72-8.96-.87-13.76-.08-7.42.45-14.37.1-22.22.12-10.54-.93-21.08-1.34-31.54.26-5.56.35-10.73-.09-16.24-.25-8.36.19-16.79-.18-25.12-.38-11.76-1.24-21.75-1.45-32.5.05-.9-.06-1.18.21-1.73.03-.05.13-.06.21-.54.12-.74.09-2.65.16-2.96.01-.07.03-.08.06,0,.08.23.13.72.21.94.15-12.77-.86-26.81-1.35-40.08,0-.03.02-.07.03-.13.11-.63.11-2.13.1-2.88v-.04c-.04.52-.11,1.9-.15,2.6-.05-1.27-.09-2.53-.13-3.78-.03-8.33.56-15.64-.12-24.42-.66-8.3-1.17-16.04-1.24-24.26,0-1.93-.2-2.42.14-3.89.23-4.72-.14-9.73-.36-14.62-.49-5.99-1.65-10.47-1.79-17.03-.94-13.77-1.74-28.4-1.82-42.09-.08-2.29-.32-4.74-.27-6.9.04-1.13.22-1.72.6-1.78.57-.07,1.27.54,1.8.8.32.12.45.2.65,0,.43-.4.16-2.8-.08-5.79-.03-.37-.07-.74-.1-1.12-.21-2.04-.51-4.12-1.18-6.01-.56-1.84-2.36-3.38-4.12-3-5.86,1.37-3.38,12.3-3.84,17.08.32,28.18,2.19,53.64,3.31,81.51,1.39,32.93.54,62.33,1.33,92.8,1.84,72.56,3.39,144.36,4.51,216.78.31,23.21-.16,45.76.12,69.13.03,14.39,1.28,27.69,1.12,41.84.08,11.24.89,21.54.4,32.85-4.17,58.78.87,120.86-2.84,177.54.11,28.62-1.29,56.66-1.02,85.59-.78,24.1-1.65,47.03-1.72,71.81-.18,37.4.19,74.44-3.99,111.76-2.24,21.41-4.91,42.89-8.12,64.17-5.67,34.64-11.61,70.56-2.3,105.11,1.05,3.69,2.09,7.5,3.96,10.48.61.77.92.33.86-1.25-.01-.33-.01-.32-.02-.48-4.94-26.64-2.91-53.5-.38-80.32,5.02-40.07,14.46-78.77,15.23-119.52.71-28.41.13-56.9,1.58-85.49-.58-6.21.46-13.89.36-20.47.3-11.98-1.7-22.8-1.15-34.28,1.12-5.83,1.78-11.47,1.87-17.65.54-14.46,1.01-29.72,1.13-44.22,1.03-16.42,1.18-32.67,2.15-49.07-.09-14.69.25-31.14.19-46.34.05-6.33-.88-14.69.36-20.57.36-.27.45-.19.63-1.83.33-5.05.06-10.38-.06-15.44,0-4.16-.6-7.04-.48-10.75.49-7.69.48-17.46.67-25.35.14-5.2-.39-7.32-.59-10.94-.13-8.04.51-16.04.64-24.88.19-6.37-.11-12.02-.09-18.09.07-6.06.92-11.74.44-17.84Z" fill="#8b0000"/><path d="M715.15,252.83c-4.82-1.25-10.19-1.68-14.93-2.72-7.95-1.5-15.97-5.86-24.22-3.64l-.14.04c-2.11.54-4.69,2.32-2.17,4.22,2,1.38,5.49,2.01,8.03,2.75,6.01,1.72,11.85,3.45,17.8,4.83-.02,0-.04.01-.05.02l.06-.02c2.13.49,4.27.95,6.43,1.33,4.78,1.05,10.96,2.69,15.05,3.17,1.38.19,2.67.46,4,.87,8.68,3.06,18.01,5.82,26.7,8.51,6.15,1.53,12.65,2.96,18.59,4.96,3.88,1.08,11.73,4.44,14.81,1.59,2.65-6.73-19.88-10.72-24.29-11.02-4.71-.48-8.89-2.44-13.05-4.66-2.8-1.16-5.76-2.36-8.56-3.23-5.42-1.8-11.01-3.17-16.53-4.57-2.52-.72-4.67-1.75-7.53-2.42Z" fill="#8b0000"/><path d="M785.31,232.79c-.53-1.67-1.5-3.21-2.08-4.84-.92-2.28-.66-4.64-2.81-6.25-1.53-1.19-4.33-1.92-6.02-.81l-.09.06c-2.72,2.54-.33,7.07.38,9.98.56,2.03,1.27,3.9,2.11,5.75,1.3,2.99.73,5.32.52,9.06.05,2.89.02,5.46.08,8.75-.05,2.83.99,6.8,4.31,6.48,2.95-.23,4.48-3.51,3.88-6.19-.24-1.47-.77-2.96-.78-4.43.04-2.05,1.24-4.03,1.63-6.01.4-2.04.1-4.07-.2-6.07-.04-.3-.09-.59-.13-.89-.07-1.42-.34-3.17-.8-4.61Z" fill="#8b0000"/><path d="M520.84,522.92c-.84-3.88-.88-7.05-1.57-10.98-.53-2.55-1.57-5.01-2.33-7.47-1.36-4.44-.68-8.82-3.9-12.41-6.75-6.08-7.29,1.91-5.93,7.32,1.24,7.57,3.29,13.97,4.97,20.96.56,3.18.32,6.6.55,9.85.27,4.68.94,9.46,1.43,14.33.46,3.29.24,7.87,2.2,10.39,2.11,2.44,4.83.34,5.61-2.03.7-1.7.68-3.59.45-5.38l-.02-.15c-.21-2.5-1.02-4.8-1.7-7.16-.94-3.14.18-6.67.47-10.03.21-2.44-.05-4.82-.25-7.25Z" fill="#8b0000"/><path d="M552.41,522.52c-.08-3.35-.05-6.97-.95-10.33-1.91-5.51.95-12.26-3.72-16.43l-.1-.08c-9.56-6.74-4.19,23.07-3.44,26.43.64,4.16-.12,8.06.12,12.64.11,4.06.67,7.88,1.08,11.99.32,2.68.5,5.54,1.37,8.01,1.65,4.29,5.55,2.98,6.52-.62.99-3.52-.15-7.25-1.2-10.57-1.61-4.24.66-8.42.67-12.7.05-2.79-.03-5.57-.36-8.34Z" fill="#8b0000"/><path d="M589.9,557.08c-5.73,2.46-13.14.3-17.06,5.97l-.07.11c-4.59,8.71,13.27,3.78,16.81,3.41,6-.88,10.93-3.02,16.78-2.66,6.73.51,13.25.13,20.14.02,2.84-.06,5.85.14,8.54-.47,4.57-1.26,3.42-5.46-.05-6.92-3.99-1.74-8.49-.56-12.54.24-4.07.76-8.48-1.65-12.67-1.66-2.92-.15-6.03.14-8.82.47-3.61.08-7.5.25-11.05,1.49Z" fill="#8b0000"/><path d="M645.18,487.58c-4.25.21-8.42-.07-12.58-.62-4.26-.56-8.71-.62-12.57,1.53l-.12.07c-5.07,3.38.01,5.44,4.14,5.81,4.33.5,9.06.93,13.23,1.35.97.04,1.96.08,2.97.14-.02.02-.05.03-.07.05l.08-.05s0,0,0,0c6.07.31,12.75.8,18.21.78,4.04.18,8.02,1.43,12.05,2.18,4.69.73,8.67,1.78,13.49,2.53,5.24.61,10.83,1.53,15.97,2.68,2.18.48,4.49.99,6.7.98,7.65-.29,4.15-5.48-.4-7.14-3.63-1.5-7.89-1.89-11.7-2.28-3.58-.09-6.37.12-9.66-.86-2.52-.7-5.01-2.02-7.54-2.7-5.09-1.54-10.2-2.32-15.47-2.84-5.29-.58-11.12-2.14-16.74-1.62Z" fill="#8b0000"/><path d="M789.87,534.91c-.12-4.61-2.59-9.5-2.62-14.04-.04-2.5-1.45-5.38-3.92-6.6-1.49-.85-3.71-1.34-4.6.45l-.06.1c-.95,1.78-.51,4.82-.25,6.97.68,5.31,1.43,10.34,2.83,15.13.19.79.28,1.46.36,2.29.31,2.57-.15,5.35-.22,7.98-.12,3.68.21,7.21.32,11.32.19,3.54-.26,12.1,5.22,10.45,3.25-1.54,3.38-5.76,2.81-8.87-.33-1.85-.96-3.42-1.09-5.19-.13-3.22,1.62-6.26,1.68-9.47.24-3.61-.44-6.92-.45-10.53Z" fill="#8b0000"/><path d="M465.29,568.44c-.8,1.65-1.01,4.6.66,5.73,3.41,1.8,7.69-1.64,10.62-2.73,1.99-.94,3.5-1.91,5.31-2.97,2.8-1.55,6.75-1.08,10.33-1.85l.15-.03c3.96-1.01,11.15-.39,12.72-4.54.75-2.82-2.25-5.15-4.9-4.83-1.64.06-3.36.94-4.84,1.43-2.49,1.01-5.16-.17-7.69-.29-2.28-.05-4.44.59-6.53,1.31-2.51.54-5.15,1.43-7.29,2.98-2.68,2.4-6.94,2.37-8.54,5.77Z" fill="#8b0000"/><path d="M576.83,1072.06c-1.74,1.6-3.54,4.93.33,5.02,3.71-.22,7.69-2.57,11.25-3.89,7.04-2.63,14.1-5.08,20.85-8.29,6.62-3.1,13.72-5.4,20.21-8.62,3.76-2.17,7.58-2.61,11.72-3.83,4.74-1.34,10.03-3.42,14.6-4.52,9.29-2.19,18.6-6.41,27.95-8.7,3.82-1.06,19.06-4.04,18.56-8.19-2.68-4.81-15.61-.4-20,.78-6.59,1.98-11.9,5.29-18.26,6.98-2.71.75-5.79.75-8.6,1.32-7.77,1.58-15.24,3.98-22.66,6.62-1.15.46-2.28.85-3.43,1.33-3.89,1.72-7.86,2.22-11.98,3.93-6.24,2.58-12.05,5.91-18.16,8.46-2.65,1.02-5.39,1.97-8.09,3.02-.05,0-.08,0-.15,0l.08.02c-5.16,2.01-10.16,4.41-14.1,8.44l-.11.11Z" fill="#8b0000"/><path d="M784.91,1039.51c-.22-3.19-1.25-6.32-1.62-9.44-.44-3.26.03-6.5-.66-9.62-.49-2.04-1.49-3.9-3.17-5.25-1.39-1.22-3.83-2.19-4.81-.11l-.06.11c-1.54,4.41-.23,10.98-.25,15.5.49,4.06.87,8.6,1.51,12.28.7,3.12.82,6.03.58,9.23-.94,9.48.03,19.06.08,28.6-.33,6.02,4.62,9.08,7.5,2.85,1.94-4.9-.38-10.88-.78-15.6-.06-2.61.82-5.07,1.37-7.59.65-3.03.55-6.07.68-9.06-.03-1.82-.2-3.26-.29-4.84-.15-2.22.13-4.51-.09-7.03Z" fill="#8b0000"/><path d="M1030.5,301.51c-.68.31-1.46.69-2.19.9-1.75.57-3.37-.57-5.05-.91-.71-.19-1.79-.05-1.89-1-.41-1.59-.44-6.79-2.69-8.42-.48-.32-1.1-.13-1.59-.06-2.19.2-4.68.79-6.7,1.81-2.94,1.64-5.76.57-7.75,3.25-3.23,4.14,1.35,12.26,5.77,13.77,3.34.79,7.01.03,10.17-1.06,2.6-.76,6.61.22,9.7-.49,2.36-.38,5.72-.86,7.03-3.16l.05-.1c1.49-2.92-2.14-6.09-4.87-4.53ZM1016.11,301.23l-.05.08c-.36.5-1.07,1.18-1.69,1.28-.43.22-.86.49-1.33.55-.2.09-.36.2-.48.16-.48-.36.15-.89.59-1.21.18-.1,3.48-2.24,2.95-.87ZM1016.93,301.46l-.21-.07v-.08c.06,0,.24-.32.32-.38.16.18-.03.36-.11.53ZM1017.85,301.8l-.1-.08c-.17-.11-.32.06-.5.05-.09-.06-.06-.49.05-.65.38-.25.52-.55.87,0,.39.49.42,1.47-.32.67ZM1019.07,301.46c-.08.06-.11-.08-.19.22l-.02.16c-.02.4-.02.78-.08.81-.06.07-.12-.14-.19-.34-.07-.18-.16-.44-.1-.77.05-.38.38-.75.69-.48.14.2.1.36-.11.39ZM1019.81,301.81l-.03-.03c-.04-.14-.26-.4-.31-.82-.05-.94.49-.86.6-.15-.07.34-.16.67-.26,1Z" fill="#8b0000"/><path d="M1127.71,206.34c-4.5-.33-9.09-.38-13.51-.35h-.13c-5.24-.05-10.78.2-16.11.31-3.66.14-7.06.7-10.8.5-10.27-.98-21.34,1.53-31.24,2.06-8.9.98-17.76-.31-26.44,1.61-3.58.75-7.3,1.59-10.58,3.37-5.57,3.56,1.56,4.97,5.57,4.47,9.66-1.15,19.98-.24,29.67-1,10.61-.87,20.91-1.56,31.43-2.1,3.43-.12,6.89-1.12,10.2-1.24,3.34.04,6.4.45,9.91.49,3.71.1,7.52-.34,11.23-.41,7.82-.11,14.15.22,21.62-.07,6.91-.09,13.92-1.3,20.76-1.11,5.24.14,10.61.33,15.78-.06,3.66-.27,9.45-.48,11.77-2.13,2.58-2.01-1.34-3.91-3.59-4.47-3.45-.98-7.22-.98-10.79-1-3.83-.04-7.92-.22-11.85.16-7.22.5-14.44,2-21.56,2.15-3.77,0-7.53-.97-11.34-1.17Z" fill="#8b0000"/><path d="M1169.4,170.24c-.12.02-.24.03-.36.05-2.31-.15-4.63,1.28-6.48,2.5-.89.48-1.8.62-2.62,1.15-1.16.92-1.39,2.19-1.4,4.11v.14c.08,3.49,2.67,5.24,5.82,3.76,1.36-.55,2.65-1.15,3.82-1.97,1.23-.82,2.41-.9,4.19-.42,3.52.83,10.65,2.57,11-3.22.04-1.06-.15-1.93-.74-2.78-1.05-1.56-2.65-1.11-4.25-.92-1.42.23-2.59-.52-3.7-1.34-.61-.48-1.17-.82-1.92-1.01-1.15-.35-2.24-.21-3.36-.04v-.22s0,.22,0,.22Z" fill="#8b0000"/><path d="M795.65,713.46l-.05-.02c-2.55-1.62-5.62-4.69-9.13-4.08-5.4.57-8.25,6.13-12.9,8.61-3.11,1.97-7.49,2.78-10.5,3.69-1.97.64-2.07,1.27-.36,1.72,28.34,3.59,57.08-1.62,85.47-1.26,38.32.97,76.95-1.59,115.11-2.09,25.13-.4,50.43-1.89,75.56-1.28,16.11-.07,31.68-1.66,47.55-2.02,31.96,2.9,65.35-.16,97.31.65,12.35.83,24.16.21,36.48.75,11.12.21,22.99-.64,33.89-.05,24.89,1.16,49.97-1.05,74.63-.33,23.49,1.57,46.35,1.42,69.55,1.47,7.89.16,15.87.22,23.91.26,10.25-.23,21.1.54,30.99-1.24,4.92-.93-5.73-8.2-6.8-8.81-1.9-.94-4.12-1.41-6-2.26-2.98-1.28-4.94-4.05-7.62-5.77-2.63-1.84-5.11-2.63-7.7-4.17-3.87-2.32-8.93-2.93-12.75-5.25-3.34-2.24-6.97-4.28-8.83-8.4-1.34-2.96-1.04-6.35-.84-9.56.56-7.3-.48-15.31-.89-22.4-.37-6.5,1.84-12.85,2.08-19.36.65-7.15.69-13.92.81-21,0-3.71-.22-7.13.17-10.92,1-8.48-.55-18.13-.69-26.48-.4-7.34.74-14.62-.1-22.06-.48-3.14-.94-6.07-2.15-9.12-1.46-3.93-4.4-5.86-5.12.3-.04,8.73-.28,17.65-.58,26.38.55,11.53.24,23.81.93,34.59.55,3.47.31,6.7-.12,10.21-.64,12.05-1.1,23.75-1.37,35.81.56,9.16-.19,18.68-.52,27.69.39,7.51-.24,13.22-9.3,12.13-12.31-.82-22.96.23-35.64-.06-8.37-.04-15.69-.29-24.04-.47-16.86-.66-33.66,1.26-50.35,1.35-8.14-.1-15.04-.06-22.61.21-6.02.12-11.62,1.56-17.03,1.42-9.67-1.52-21.65-1.45-31.17-1.57-10.09-.25-20.25-1.08-30.37-1.1-7.47.12-16.55.3-24.46.5-5.05.08-7.49-1.14-12.27-.74-6.29.78-12.5.3-19,.27-8.76.74-18.58.18-27.41.13-7.83-.44-16.08.13-23.72.87-13.17-.53-27.04-.4-40.28-.72-23.03-.24-45.49,2.09-68.54,1.85-8.29.74-16.39,1.17-24.53-.76-7.8-.59-16.81,2.51-24.51,2.11-.77-.04-1.54-.06-2.08-.45-3.63-.65-9.21,0-13.22.07-2.14.15-4.24.2-6.33.22-.32-.18-1.12-.17-1.54-.2h-.03c-.06-.02.9.16,1.35.2-6.83.04-13.44-.37-20.22.29-5.42.61-10.06-.25-15.54.13-5.03.48-9.37,1.32-14.61,1.68-10.88.7-23.64.31-34.49,2.54-1.42.26-2.67.53-3.67.8-1.29.35-2.14.7-2.4,1.02-.16.19-.09.34.09.55.41.42,1.04.87,1.18,1.48-.06,2.09-1.86,4.46-1.9,7.48-.19,1.25.14,2.83-.06,3.98-.1.55-.29.74-.72.58ZM795.72,717.41c-2.14.78-4.71.27-6.99.59-1.7.12-3.39.31-4.97.48-1.83.21-3.23.26-3.41-.27l-.02-.07c.09-1.22,2.24-2.65,3.4-3.54,2.57-2.06,6.45-2.97,9.1-.93,1.4.89,4.12,3.15,2.88,3.75ZM1398.36,690.13c.2-.28.53-.96.75-1.09h.06c.16.16.15.83.26,1.13.27.85.63,1.57-.64,1.37-1.21-.1-1.02-.58-.43-1.4ZM1370.21,696.62c2.09-.02,4.36-.05,6.47-.07h.24c1.22-.08,4.83.14,1.35.44-1.82.09-4.49-.12-6.77-.23-.63-.04-3.73-.12-1.29-.14ZM1365.92,696.67c.17,0,.63,0,.87,0-.07,0-.67.02-.88,0h0ZM1352.52,707.27c11.94,1.66,22.59.06,34.86,1.51,4.83.34,11.34.73,16.31,1.01,2.66.28,6.52.04,7.75-1.73,2.54-3.34-2.24-6.31-4.65-8.05-3.6-2.43-7.65-4.53-12.14-4.37-.52,0-.94,0-1.24,0-.53,0-.64-.05-.33-.09,2.57-.25,6.18-.54,8.89-.1,4.6.63,8.17,3.04,12.07,4.9l.14.06c3.41,1.6,6.47,2.41,9.8,3.74,2.92,1.14,6.09,3.83,9.3,5.7,2.5,1.68,11.59,4.98,2.01,3.65-9.97-1.37-20.34-1.59-29.72-1.32-7.08-.05-14.38-.23-21.48-.34-17.3-.6-35.63-1.62-52.74-1.07-10.43.51-20.13.95-30.88.79-6.98-.33-13.84-.17-20.32-.19-8.07-.54-17.12,1.87-24.55,1.47-11.17-2.2-23.74-1.65-35-1.96-7.31-.29-14.9-.73-22.22-1-13.86-.86-27.92-.09-42.1.11-3.93.07-4.35-.76-7.75-.98-2.92-.13-6.72.11-9.69.47-6.05.59-11.79-.38-17.95-.11-5.3.31-10.53.82-16.02.38-6.25-.38-11.62-.04-17.11-.21-.54-.03-.86-.07-.88-.12-.04-.07.61-.14,1.85-.19.4-.02.39-.02.59-.03,9.4-.28,18.19-1.55,27.4-1.63,6.38-.12,11.75-.96,18.03-1,7.51-.29,15.21.76,23.01,1.01,37.19.05,74.88-3.5,110.55-2.15,9.28-.3,17.22-.74,26.65-.47,10.69.15,20.73-.7,31.65-.99,8.95-.61,17.03,2.22,25.9,3.33ZM1069.82,697.17h.11c5.56-.34,10.83-1,16.37-.58,6.65.39,13.43,1.57,20.19,1.43,25.29-.14,50.19-1.94,74.46-.47,4.07.08,7.83-.16,11.85-.17,8.07.32,16.62.43,24.79,0,8.07-.38,15.51.01,23.34.16,11.2.12,24.4-.4,34.87-.88,18.69-1.39,37.37.16,56.36.57,5.07.19,5.77.56.74.64-5.84,0-12.45,0-18.46.03-9.43.19-18.49.22-27.97-.2-7.71.28-14.65-.31-22.36-.31-9.47.52-21.17.57-31.25,1.04-4.06.13-10.36,1.02-13.94.06-.9-.55-4.21-.71-6.26-.55-5.22.03-9.72,1.11-14.87,1.09-8.12-.22-16.83-.45-24.85.65-5.11.39-10.77-.1-16.32-.1-4.69-.06-9.19.25-13.83.31-3.54.03-6.81-.42-10.42-.18-5.38.45-11.23.54-16.2,1.23-1.35.22-2.62.49-3.97.57-2.29.2-4.45-.44-6.66-.5-3.07-.13-8.24.37-11.76.37-7.66-.07-15.3-.13-22.56-1.93-1.67-.34-4.74-1.93-1.4-2.25ZM1040.7,699.41c6.71-.53,13.26,1.17,19.65,3.19,7.94,2.65-3.01,3.35-6.08,3.53h-.22c-5.75.7-11.17-.54-16.54-2.05-2.13-.62-4.8-.56-6.71-1.57-1.19-1.81,7.44-2.97,9.9-3.1ZM986.93,702.14c3.62-3.78,9.41-3.33,14.3-3.62h.21c6.08-.45,3.3.42-.26,1.3-4.29,1-8.65,2.99-12.46,3.59-1.15.24-3.35.14-1.79-1.27ZM956.42,709.08c1-.02,23.92-10.05,19.41-5l-.1.11c-3.91,3.73-9.41,4.95-14.64,5.82-1.93.22-4.64,1.01-6.39.31-.13-.56,1.11-.94,1.72-1.24ZM932.26,712.95c.2.06.84.16.94.23-.21.06-1.6.03-1.88,0v-.02c.61-.21.59-.3.93-.22ZM910.38,711.58c3.62-2.58,8.82-.87,12.97-.37,1.17.17,9.82,1.46,8.17,1.67h-.07c-2.89-.14-6.06.28-8.99.46-1.95-.12-13.75.59-12.07-1.75ZM890.87,705.13c.03-.14.26-.26.64-.36,3.06-.75,6.31-.63,9.27.53,1.01.45,2.69.78,3.11,1.88.03-.02.07-.04.1-.06.1-.03.23-.13.32-.06l-.02.06c-.1.11-.21.22-.33.33,0,.07-.02.14-.03.21.22-.16.45-.31.68-.43l.15-.02c.82.09-.14.8-.51,1.05-.34.24-1.99,1.59-1.92,1.02.06-.09.14-.18.21-.26-.12.06-.24.11-.35.15-.21.08-.41.13-.61.18-.17.13-.33.26-.48.39-.3.23-.45.24-.29,0,.07-.1.16-.2.25-.3-1.99.17-3.71-1.21-5.95-2.16-1.25-.72-3.35-1.03-4.24-2.07v-.05ZM890.12,713.62c2.97.78-1.89.74-2.54.77-.52-.02-.77-.14-.5-.3.82-.34,2.02-.55,2.87-.49l.18.03ZM889.26,713.33c.17.02.3.05.37.08.32.14-.56.17-1.78.22-1.29.03-2.39.17-3.17.08-.14-.09.2-.16.38-.21,1.16-.22,2.85-.28,4.02-.19l.19.02ZM872.77,712.51c5.13-1.04,10.92-1.36,15.81.27-.42.45-2.1.28-2.9.38-4.38.11-9.16.57-13.79.7-.61-.01-1.66.04-1.95-.24v-.03c.44-.64,1.96-.81,2.83-1.07ZM808.17,717.2c.09-.03.18-.06.27-.09l.15.05c-.15.01-.28.02-.42.03ZM858.03,713.77l-.13.02c-4.52.28-11.17.44-15.19,1.06-2.61.23-6.23.53-8.61.06-2.6-.84,3.57-2.6,4.41-2.83,4.86-1.38,10.47-1.66,15.71-.54.99.15,7.12,1.69,3.8,2.24ZM859.68,714.41h0c.12.07.4.25.56.38-.11-.02-.53-.32-.56-.38ZM828.25,702.76c2.14-1.19,5.31-1.25,7.93-1.41,8.59-.2,20.56-1.47,30.61-1.17h.03c.2.14-.61.37-2.13.65-3.06.55-6.95,1.21-10.17,1.61-3.39.35-3.32.13-5.48-.14-.32-.04-.37-.14-.51-.25-.24-.08-.43-.05-.81-.05-1.65.06-7.78.86-11,1.25-1.83.22-3.74.42-5.18.49-1.84,0-2.9.14-3.54-.56-.02-.25.09-.28.25-.43ZM827.17,711.74l.05.03c0,.05-.24.3-.43.35-.12.1-1.06-.35-.94-.39.26-.05.97,0,1.31,0ZM818.08,716.24c-2.4.37-5.71.5-8.21.43v-.02c2.47-.62,5.67-.76,8.21-.41ZM806.78,710.94c.69-.29,1.48-.71,2.18-.82l.2-.03c.23-.06,1.43.05.95.27-1.14.32-2.8.64-3.98,1.04-.17.05-.38.11-.54.14-.13-.04.99-.5,1.2-.6Z" fill="#8b0000"/></svg>