<?xml version="1.0" encoding="UTF-8"?>
<svg id="Camada_2" data-name="Camada 2" xmlns="http://www.w3.org/2000/svg" viewBox="0 0 407.6446025148 153.8243542928">
  <defs>
    <style>
      .cls-1 {
        fill: #de1f14;
      }
    </style>
  </defs>
  <g id="Camada_1-2" data-name="Camada 1">
    <path class="cls-1" d="M402.6220953864,43.5938988211c-8.818359375-21.548828125-30.3338623047-31.4477539062-52.9124755859-36.978515625-77.1921386719-18.9096679688-110.7819824219,4.9213867188-179.4255371094,43.5693359375-2.8328857422,1.5952148438-7.9514160156,4.4780273438-10.7683105469,5.7685546875-5.7294921875,2.490234375-12.419921875,5.0424804688-18.4343261719,5.4252929688-19.0222167969,1.8374023438-41.8703613281,2.4921875-61.06640625-.6171875-20.1014404297-2.99609375-35.4206542969-12.2758789062-55.7006835938-13.3359375-20.1293945312-.7094726562-17.6174316406,11.9487304688-19.3139648438,28.3720703125-.6401367188,4.9365234375-1.763671875,9.8012695312-3.2893066406,14.5087890625-2.0559082031,5.6215820312-2.9846191406,12.3432617188,1.4665527344,16.8706054688,14.8703613281,15.5122070312,39.5186767578-1.0185546875,57.0874023438-3.5209960938,33.4389648438-3.3471679688,52.4609375-1.234375,85.8894042969,2.7607421875,6.2358398438.7456054688,12.3950195312.7958984375,17.8757324219,4.0483398438,55.3122558594,18.3344726562,67.25,39.4965820312,128.1796875,42.7524414062,33.2841796875,1.7783203125,52.3017578125,1.1274414062,84.9572753906-23.04296875,29.8127441406-22.06640625,36.5341796875-48.8544921875,25.4549560547-86.5805664062Z"/>
  </g>
</svg>